<svg width="109" height="32" viewBox="0 0 109 32" fill="none" xmlns="http://www.w3.org/2000/svg">
<path d="M29.3332 18.668C29.3332 8.3584 20.9764 0 10.6668 0V2.6668C19.504 2.6668 26.6668 9.8308 26.6668 18.668H29.3332Z" fill="#9DE500"/>
<path d="M10.6668 29.333C16.5584 29.333 21.3332 24.557 21.3332 18.6674C21.3332 12.7758 16.5584 7.99978 10.6668 7.99978V5.33298C18.0312 5.33298 24 11.3034 24 18.6678C24 26.031 18.0312 31.9998 10.6668 31.9998V29.333Z" fill="#9DE500"/>
<path d="M5.3332 18.6665C5.3332 21.6117 7.72 23.9997 10.6668 23.9997C13.6132 23.9997 16 21.6117 16 18.6665C16 15.7213 13.6132 13.3329 10.6668 13.3329V10.6665C15.086 10.6665 18.6668 14.2485 18.6668 18.6677C18.6668 23.0857 15.086 26.6665 10.6668 26.6665C6.2472 26.6665 2.6668 23.0857 2.6668 18.6677L5.3332 18.6665Z" fill="#9DE500"/>
<g clip-path="url(#clip0_19_1897)">
<path d="M45.5894 10.56C44.8036 10.56 44.1145 10.421 43.5161 10.1369C42.9177 9.85884 42.4462 9.45385 42.1077 8.93402C41.7692 8.41418 41.6 7.78555 41.6 7.04811V6.64312H43.4859V7.04811C43.4859 7.65861 43.6733 8.118 44.0541 8.42627C44.4289 8.7285 44.9426 8.87357 45.5894 8.87357C46.2362 8.87357 46.7379 8.74059 47.0522 8.48067C47.3786 8.22076 47.5479 7.88831 47.5479 7.47727C47.5479 7.19922 47.4632 6.96953 47.3 6.79424C47.1429 6.61894 46.9132 6.47992 46.6049 6.37112C46.3027 6.25627 45.94 6.14747 45.5048 6.05075L45.1723 5.97822C44.4772 5.82106 43.8788 5.62763 43.3711 5.39794C42.8754 5.15616 42.4946 4.84184 42.2226 4.45499C41.9627 4.06813 41.8297 3.56643 41.8297 2.94384C41.8297 2.32125 41.9748 1.79537 42.2649 1.36016C42.5671 0.912862 42.9782 0.574365 43.5101 0.344671C44.0541 0.102888 44.6827 -0.0180035 45.4081 -0.0180035C46.1334 -0.0180035 46.7742 0.108933 47.3363 0.35676C47.9045 0.598544 48.3518 0.967263 48.6721 1.45687C48.9986 1.94044 49.1678 2.55094 49.1678 3.28234V3.71755H47.2819V3.28234C47.2819 2.89548 47.2033 2.58721 47.0522 2.35147C46.9071 2.10969 46.6956 1.9344 46.4115 1.83164C46.1334 1.71679 45.7949 1.65634 45.4081 1.65634C44.8278 1.65634 44.3986 1.76515 44.1145 1.9888C43.8425 2.20036 43.7095 2.49654 43.7095 2.87131C43.7095 3.12518 43.77 3.33674 43.8969 3.51203C44.0299 3.68732 44.2294 3.83239 44.4893 3.94724C44.7492 4.06209 45.0817 4.16485 45.4927 4.24947L45.8252 4.322C46.5505 4.47916 47.1791 4.67259 47.7111 4.91437C48.2551 5.15616 48.6721 5.47652 48.9744 5.86942C49.2766 6.26231 49.4217 6.7761 49.4217 7.39265C49.4217 8.0092 49.2645 8.55925 48.9442 9.03073C48.6359 9.49616 48.1886 9.86488 47.6083 10.1308C47.0401 10.3908 46.3631 10.5237 45.5773 10.5237L45.5894 10.56ZM50.9207 13.2619V3.16145H52.722V4.03186H52.9819C53.1451 3.75381 53.4051 3.50599 53.7496 3.29443C54.1002 3.07078 54.5958 2.96197 55.2426 2.96197C55.8229 2.96197 56.3609 3.10704 56.8505 3.39718C57.3461 3.67523 57.739 4.09231 58.0412 4.64237C58.3435 5.19242 58.4885 5.86337 58.4885 6.64312V6.87282C58.4885 7.65861 58.3374 8.32352 58.0412 8.87357C57.739 9.42363 57.3461 9.84675 56.8505 10.1369C56.3548 10.4149 55.8229 10.56 55.2426 10.56C54.8074 10.56 54.4387 10.5056 54.1425 10.4029C53.8524 10.3061 53.6166 10.1792 53.4292 10.0281C53.2539 9.86488 53.1149 9.70168 53.0061 9.53243H52.7462V13.2619H50.9207ZM54.6925 8.96424C55.2607 8.96424 55.7322 8.7829 56.1009 8.42627C56.4757 8.05755 56.6691 7.52563 56.6691 6.8305V6.68543C56.6691 5.99031 56.4817 5.46443 56.1009 5.10175C55.7262 4.73304 55.2547 4.5517 54.6925 4.5517C54.1304 4.5517 53.665 4.73304 53.2842 5.10175C52.9094 5.45838 52.716 5.98426 52.716 6.68543V6.8305C52.716 7.52563 52.9034 8.05755 53.2842 8.42627C53.6589 8.7829 54.1304 8.96424 54.6925 8.96424ZM63.4511 10.56C62.7379 10.56 62.1032 10.4089 61.5531 10.1127C61.0091 9.80444 60.586 9.37527 60.2777 8.81917C59.9755 8.25703 59.8304 7.59817 59.8304 6.84864V6.67335C59.8304 5.91777 59.9816 5.26496 60.2777 4.7149C60.58 4.15276 60.997 3.72359 61.5411 3.42136C62.0851 3.11309 62.7137 2.95593 63.427 2.95593C64.1402 2.95593 64.7447 3.11309 65.2706 3.43345C65.7904 3.74172 66.2014 4.17693 66.4916 4.73908C66.7817 5.28914 66.9268 5.93591 66.9268 6.6673V7.28989H61.6922C61.7103 7.78555 61.8977 8.18449 62.2422 8.49276C62.5928 8.80104 63.0159 8.9582 63.5176 8.9582C64.0193 8.9582 64.4062 8.84939 64.648 8.62574C64.8898 8.4021 65.0711 8.15427 65.198 7.88831L66.691 8.6741C66.5581 8.92797 66.3586 9.19998 66.0987 9.50221C65.8448 9.79235 65.5063 10.0462 65.0832 10.2578C64.6601 10.4633 64.116 10.56 63.4572 10.56H63.4511ZM61.6922 5.93591H65.059C65.0227 5.51883 64.8535 5.18638 64.5513 4.93251C64.2611 4.67863 63.8803 4.55774 63.4028 4.55774C62.9253 4.55774 62.5203 4.68468 62.2301 4.93251C61.94 5.18638 61.7587 5.51883 61.6922 5.93591ZM68.5407 10.3605V0.205646H70.3661V5.82106H70.6261L73.0076 3.16749H75.3892L72.0647 6.64917L75.504 10.3605H73.1527L70.6261 7.50145H70.3661V10.3605H68.5407ZM79.4874 10.3605C79.0159 10.3605 78.6291 10.2155 78.3269 9.92533C78.0367 9.6231 77.8916 9.2302 77.8916 8.73455V4.67259H76.0904V3.16145H77.8916V0.930995H79.7171V3.16749H81.6876V4.67863H79.7171V8.42023C79.7171 8.71037 79.8501 8.85544 80.1221 8.85544H81.5123V10.3666H79.4814L79.4874 10.3605ZM83.3499 10.3605V3.16145H85.1512V3.97142H85.4111C85.5199 3.68128 85.6891 3.46972 85.9309 3.33069C86.1848 3.19771 86.4749 3.12518 86.8014 3.12518H87.6718V4.75117H86.7711C86.3057 4.75117 85.9249 4.87811 85.6227 5.12593C85.3204 5.36772 85.1754 5.74248 85.1754 6.25627V10.3485H83.3499V10.3605ZM91.8425 10.4754C91.2804 10.4754 90.7908 10.3484 90.3616 10.1006C89.9445 9.8407 89.6242 9.48407 89.3884 9.02469C89.1587 8.57134 89.0378 8.04547 89.0378 7.45914V3.16749H90.8633V7.31407C90.8633 7.85808 90.9963 8.26307 91.2562 8.53508C91.5282 8.80708 91.909 8.94006 92.4047 8.94006C92.9668 8.94006 93.402 8.75873 93.7103 8.39001C94.0186 8.01524 94.1757 7.48936 94.1757 6.82446V3.16749H96.0012V10.3605H94.1999V9.41758H93.94C93.8252 9.65937 93.6076 9.89511 93.2872 10.1308C92.9668 10.3605 92.4833 10.4814 91.8365 10.4814L91.8425 10.4754ZM98.0382 10.3605V3.16145H99.8395V3.94724H100.099C100.226 3.70546 100.432 3.49994 100.722 3.32465C101.012 3.14331 101.393 3.0466 101.87 3.0466C102.384 3.0466 102.795 3.14936 103.104 3.34883C103.412 3.54225 103.648 3.79613 103.817 4.11649H104.077C104.24 3.80822 104.476 3.5483 104.772 3.34883C105.068 3.14936 105.497 3.0466 106.047 3.0466C106.495 3.0466 106.894 3.14331 107.25 3.33674C107.619 3.51808 107.909 3.80822 108.121 4.19507C108.344 4.56983 108.453 5.0534 108.453 5.63368V10.3605H106.628V5.76061C106.628 5.36167 106.525 5.07153 106.325 4.87811C106.12 4.67259 105.836 4.57588 105.467 4.57588C105.05 4.57588 104.73 4.70886 104.494 4.98086C104.27 5.24078 104.161 5.62159 104.161 6.1112V10.3605H102.336V5.76061C102.336 5.36167 102.233 5.07153 102.034 4.87811C101.828 4.67259 101.544 4.57588 101.175 4.57588C100.758 4.57588 100.438 4.70886 100.202 4.98086C99.9785 5.24078 99.8697 5.62159 99.8697 6.1112V10.3605H98.0443H98.0382ZM42.0654 29.0987V18.9438H43.9816V29.0987H42.0654ZM45.946 29.0987V21.9057H47.7473V22.6915H48.0072C48.1342 22.4497 48.3397 22.2442 48.6298 22.0689C48.92 21.8876 49.3008 21.7908 49.7783 21.7908C50.2921 21.7908 50.7031 21.8936 51.0114 22.0931C51.3197 22.2865 51.5554 22.5404 51.7247 22.8607H51.9846C52.1478 22.5525 52.3835 22.2925 52.6797 22.0931C52.9819 21.8876 53.4051 21.7908 53.9551 21.7908C54.4024 21.7908 54.8014 21.8876 55.158 22.081C55.5267 22.2623 55.8168 22.5525 56.0284 22.9393C56.2521 23.3141 56.3609 23.7976 56.3609 24.3779V29.1048H54.5354V24.5049C54.5354 24.1059 54.4326 23.8158 54.2332 23.6223C54.0276 23.4168 53.7436 23.3201 53.3748 23.3201C52.9578 23.3201 52.6374 23.4531 52.4017 23.7251C52.178 23.985 52.0692 24.3658 52.0692 24.8554V29.1048H50.2437V24.5049C50.2437 24.1059 50.141 23.8158 49.9415 23.6223C49.736 23.4168 49.4519 23.3201 49.0832 23.3201C48.6661 23.3201 48.3457 23.4531 48.11 23.7251C47.8864 23.985 47.7776 24.3658 47.7776 24.8554V29.1048H45.9521L45.946 29.0987ZM60.5618 29.2982C60.048 29.2982 59.5887 29.2136 59.1837 29.0383C58.7787 28.857 58.4523 28.591 58.2105 28.2525C57.9808 27.9019 57.8599 27.4848 57.8599 26.9892C57.8599 26.4935 57.9748 26.0825 58.2105 25.7561C58.4523 25.4176 58.7787 25.1637 59.1958 25.0005C59.6189 24.8252 60.1024 24.7406 60.6465 24.7406H62.617V24.3356C62.617 23.9971 62.5082 23.7191 62.2966 23.5075C62.0851 23.2838 61.7466 23.175 61.2811 23.175C60.8157 23.175 60.4893 23.2838 60.2656 23.4954C60.042 23.7009 59.8969 23.9669 59.8304 24.2933L58.15 23.7251C58.2649 23.3564 58.4523 23.0239 58.7001 22.7217C58.96 22.4134 59.3046 22.1656 59.7277 21.9843C60.1629 21.7908 60.6888 21.6941 61.3114 21.6941C62.2604 21.6941 63.0099 21.9299 63.5599 22.4074C64.11 22.8849 64.3881 23.5679 64.3881 24.4686V27.1524C64.3881 27.4425 64.521 27.5876 64.793 27.5876H65.3733V29.0987H64.1523C63.7957 29.0987 63.4995 29.0141 63.2698 28.8388C63.0401 28.6635 62.9192 28.4338 62.9192 28.1437V28.1316H62.6412C62.6049 28.2464 62.5142 28.4036 62.3813 28.597C62.2483 28.7784 62.0307 28.9476 61.7405 29.0927C61.4504 29.2378 61.0514 29.3103 60.5497 29.3103L60.5618 29.2982ZM60.8822 27.8173C61.396 27.8173 61.8131 27.6783 62.1274 27.3942C62.4538 27.104 62.623 26.7232 62.623 26.2457V26.1006H60.7794C60.4409 26.1006 60.175 26.1732 59.9816 26.3182C59.7881 26.4633 59.6914 26.6688 59.6914 26.9287C59.6914 27.1886 59.7942 27.4002 59.9936 27.5695C60.1992 27.7327 60.4893 27.8173 60.8762 27.8173H60.8822ZM65.3794 32.0001V30.4346H66.3344C66.6064 30.4346 66.7394 30.2895 66.7394 29.9994V21.9057H68.5649V30.3802C68.5649 30.8758 68.4198 31.2627 68.1296 31.5528C67.8395 31.8551 67.4527 32.0001 66.9691 32.0001H65.3733H65.3794ZM67.6582 21.0594C67.3318 21.0594 67.0477 20.9506 66.818 20.7391C66.5943 20.5275 66.4855 20.2434 66.4855 19.8989C66.4855 19.5543 66.5943 19.2703 66.818 19.0587C67.0477 18.8471 67.3318 18.7383 67.6582 18.7383C67.9846 18.7383 68.2747 18.8471 68.4984 19.0587C68.722 19.2703 68.8308 19.5543 68.8308 19.8989C68.8308 20.2434 68.722 20.5275 68.4984 20.7391C68.2747 20.9506 67.9967 21.0594 67.6582 21.0594ZM70.5958 29.0987V21.9057H72.4213V29.0987H70.5958ZM71.5146 21.0594C71.1882 21.0594 70.9041 20.9506 70.6744 20.7391C70.4508 20.5275 70.342 20.2434 70.342 19.8989C70.342 19.5543 70.4508 19.2703 70.6744 19.0587C70.9041 18.8471 71.1882 18.7383 71.5146 18.7383C71.841 18.7383 72.1312 18.8471 72.3548 19.0587C72.5785 19.2703 72.6873 19.5543 72.6873 19.8989C72.6873 20.2434 72.5785 20.5275 72.3548 20.7391C72.1312 20.9506 71.8531 21.0594 71.5146 21.0594Z" fill="#E9F1FB"/>
</g>
<defs>
<clipPath id="clip0_19_1897">
<rect width="66.853" height="32" fill="white" transform="translate(41.6)"/>
</clipPath>
</defs>
</svg>
