<svg xmlns="http://www.w3.org/2000/svg" width="213" height="49" viewBox="0 0 213 49" fill="none">
<g clip-path="url(#clip0_168_2511)">
<path fill-rule="evenodd" clip-rule="evenodd" d="M18.5 33.7349C16.9023 33.7349 15.3701 33.1003 14.2403 31.9705C13.1106 30.8408 12.4759 29.3085 12.4759 27.7108V0H0.427734V27.7108C0.427734 37.6916 8.5193 45.7831 18.5 45.7831H31.753V33.7349H18.5ZM54.6446 12.0482C53.2206 12.0482 51.8106 12.3287 50.495 12.8736C49.1794 13.4185 47.9841 14.2172 46.9772 15.2241C45.9703 16.231 45.1716 17.4264 44.6266 18.742C44.0817 20.0576 43.8012 21.4676 43.8012 22.8916C43.8012 24.3155 44.0817 25.7256 44.6266 27.0411C45.1716 28.3567 45.9703 29.5521 46.9772 30.559C47.9841 31.5659 49.1794 32.3646 50.495 32.9095C51.8106 33.4545 53.2206 33.7349 54.6446 33.7349C57.5204 33.7349 60.2785 32.5925 62.312 30.559C64.3455 28.5255 65.488 25.7674 65.488 22.8916C65.488 20.0157 64.3455 17.2577 62.312 15.2241C60.2785 13.1906 57.5204 12.0482 54.6446 12.0482ZM31.753 22.8916C31.753 10.2494 42.0024 0 54.6446 0C67.2868 0 77.5362 10.2494 77.5362 22.8916C77.5362 35.5337 67.2868 45.7831 54.6446 45.7831C42.0024 45.7831 31.753 35.5337 31.753 22.8916ZM184.765 12.0482C181.889 12.0482 179.131 13.1906 177.098 15.2241C175.064 17.2577 173.922 20.0157 173.922 22.8916C173.922 25.7674 175.064 28.5255 177.098 30.559C179.131 32.5925 181.889 33.7349 184.765 33.7349C187.641 33.7349 190.399 32.5925 192.433 30.559C194.466 28.5255 195.608 25.7674 195.608 22.8916C195.608 20.0157 194.466 17.2577 192.433 15.2241C190.399 13.1906 187.641 12.0482 184.765 12.0482ZM161.874 22.8916C161.874 10.2494 172.123 0 184.765 0C197.407 0 207.657 10.2494 207.657 22.8916C207.657 35.5337 197.407 45.7831 184.765 45.7831C172.123 45.7831 161.874 35.5337 161.874 22.8916ZM102.837 0C90.1952 0 79.9458 10.2494 79.9458 22.8916C79.9458 35.5337 90.1952 45.7831 102.837 45.7831H136.572C138.945 45.7831 141.233 45.4217 143.384 44.7518L149.825 48.1928L156.775 35.1759C158.54 31.8623 159.464 28.1654 159.464 24.4108V22.8916C159.464 10.2494 149.214 0 136.572 0H102.837ZM147.416 22.8916C147.416 20.0157 146.273 17.2577 144.24 15.2241C142.206 13.1906 139.448 12.0482 136.572 12.0482H102.837C101.413 12.0482 100.003 12.3287 98.6878 12.8736C97.3722 13.4185 96.1768 14.2172 95.1699 15.2241C94.163 16.231 93.3643 17.4264 92.8194 18.742C92.2745 20.0576 91.994 21.4676 91.994 22.8916C91.994 24.3155 92.2745 25.7256 92.8194 27.0411C93.3643 28.3567 94.163 29.5521 95.1699 30.559C96.1768 31.5659 97.3722 32.3646 98.6878 32.9095C100.003 33.4545 101.413 33.7349 102.837 33.7349H136.572C139.434 33.735 142.179 32.6042 144.21 30.5889C146.241 28.5735 147.393 25.8371 147.416 22.9759V22.8916Z" fill="#E6E8E9"/>
<path d="M212.476 3.01205C212.476 3.81089 212.159 4.57702 211.594 5.14189C211.029 5.70676 210.263 6.0241 209.464 6.0241C208.665 6.0241 207.899 5.70676 207.334 5.14189C206.769 4.57702 206.452 3.81089 206.452 3.01205C206.452 2.2132 206.769 1.44708 207.334 0.882209C207.899 0.31734 208.665 0 209.464 0C210.263 0 211.029 0.31734 211.594 0.882209C212.159 1.44708 212.476 2.2132 212.476 3.01205Z" fill="#E6E8E9"/>
</g>
<defs>
<clipPath id="clip0_168_2511">
<rect width="212.048" height="48.1928" fill="white" transform="translate(0.427734)"/>
</clipPath>
</defs>
</svg>
