<svg xmlns="http://www.w3.org/2000/svg" width="211" height="48" viewBox="0 0 211 48" fill="none">
  <g clip-path="url(#clip0_168_2514)">
    <path d="M60.9614 25.0387C61.0031 24.236 61.0031 23.4317 60.9614 22.629H15.2397C15.2301 22.829 15.2217 23.0303 15.2169 23.2315H5.63854L5.63372 23.5327H0.475891V24.1351H5.63252L5.63975 24.4363H15.2169C15.2217 24.6387 15.2289 24.8387 15.241 25.0387H28.3675C28.3176 24.639 28.2927 24.2366 28.2928 23.8339H47.5699C47.5699 24.2423 47.5458 24.6447 47.4952 25.0387H60.9614ZM60.8663 21.4242H47.2675C47.1617 21.0143 47.0289 20.6118 46.8699 20.2194H28.9964C28.8385 20.6098 28.7048 21.011 28.5988 21.4242H15.3337C15.3554 21.223 15.3795 21.0218 15.406 20.8218H5.8277L5.86866 20.5278H0.475891V19.9254H5.96384L6.01926 19.617H15.5976C15.6337 19.4158 15.6747 19.2146 15.7181 19.0146H60.4843C60.653 19.8037 60.7819 20.6074 60.8663 21.4242ZM60.1916 17.8098H45.4566C45.1091 17.376 44.725 16.9729 44.3084 16.6049H31.5566C31.141 16.9736 30.7554 17.376 30.4084 17.8098H16.0108C16.065 17.6086 16.1229 17.4074 16.1831 17.2074H6.60481L6.71083 16.8688H0.475891V16.2652H6.91204L7.00601 16.0013H16.5843C16.6566 15.7989 16.7337 15.5989 16.8132 15.3989H59.3879C59.6988 16.1821 59.9675 16.9881 60.1916 17.8098ZM58.8699 14.1953H17.3313C17.4253 13.9929 17.5217 13.7929 17.6217 13.5929H8.04457L8.21445 13.2604H0.475891V12.658H8.54095L8.69396 12.3881H18.2723C18.3891 12.1857 18.5096 11.9845 18.6325 11.7857H57.5687C58.0482 12.5592 58.4843 13.364 58.8699 14.1953ZM15.3337 26.2435H60.8675C60.7819 27.0604 60.653 27.8652 60.4843 28.6531H46.2819C46.5048 28.2676 46.7024 27.8652 46.8711 27.4483H28.994C29.1626 27.8652 29.359 28.2676 29.5819 28.6531H15.7169C15.674 28.4529 15.6338 28.2521 15.5964 28.0507H6.01926C5.99964 27.9448 5.98077 27.8388 5.96264 27.7327H0.475891V27.1303H5.86746C5.85362 27.0356 5.84037 26.9408 5.8277 26.8459H15.406C15.3793 26.6454 15.3552 26.4446 15.3337 26.2435ZM16.0096 29.858H60.1903C59.9675 30.6809 59.6988 31.4845 59.3879 32.2676H42.6024C43.2129 31.9287 43.7849 31.5248 44.3084 31.0628H31.5566C32.0801 31.5248 32.6522 31.9287 33.2626 32.2676H16.8132C16.7342 32.0679 16.6578 31.867 16.5843 31.6652H7.00601L6.9024 31.3748H0.475891V30.7724H6.7024C6.66953 30.6686 6.6374 30.5646 6.60601 30.4604H16.1831C16.1229 30.2604 16.065 30.0604 16.0096 29.858ZM17.3313 33.4724H58.8699C58.4847 34.3009 58.0502 35.1056 57.5687 35.8821H18.6325C18.5089 35.6831 18.3885 35.4823 18.2711 35.2796H8.69396C8.63372 35.176 8.57469 35.0724 8.51686 34.9676H0.475891V34.3652H8.19276L8.04457 34.076H17.6229C17.5228 33.8767 17.4256 33.6758 17.3313 33.4736V33.4724ZM20.8614 38.8941C21.0385 39.0989 21.2205 39.2989 21.406 39.4965H54.7952C55.5063 38.7388 56.1652 37.9337 56.7675 37.0869H19.4337C19.5783 37.2905 19.7253 37.4917 19.8771 37.6893H10.2988L10.5373 37.9965H0.475891V38.5989H11.0301C11.1132 38.6989 11.1976 38.7965 11.2831 38.8941H20.8614ZM24.8578 42.5086C25.1506 42.717 25.4482 42.9182 25.7494 43.111H50.4518C51.5607 42.3988 52.6063 41.5926 53.5771 40.7013H22.6253C22.8482 40.9062 23.0759 41.1074 23.3072 41.3037H13.7289C13.859 41.4146 13.9903 41.523 14.1229 41.629H0.475891V42.2315H14.9C15.0253 42.3254 15.153 42.4182 15.2807 42.5086H24.859H24.8578ZM33.312 46.2242C34.8566 46.5531 36.4578 46.7254 38.1 46.7254C41.7795 46.7254 45.2554 45.858 48.3349 44.3158H27.865C28.294 44.5303 28.7289 44.7315 29.1711 44.9182H19.5928C19.7638 44.9905 19.9361 45.0616 20.1084 45.1303H0.475891V45.7327H21.8313C23.9482 46.3784 26.1952 46.7254 28.5229 46.7254C30.165 46.7254 31.7675 46.5531 33.312 46.2242ZM19.4337 10.5809H56.7675C56.1652 9.734 55.5063 8.92895 54.7952 8.17121H21.406C21.2205 8.3688 21.0385 8.5688 20.8602 8.77362H11.2831L11.0711 9.02182H0.475891V9.62423H10.5747C10.4819 9.74109 10.3903 9.85917 10.3 9.97844H19.8771C19.7253 10.1772 19.5783 10.3784 19.4337 10.5809ZM22.6241 6.96639H53.5759C52.6055 6.07513 51.5603 5.26895 50.4518 4.55676H25.7494C25.4482 4.75073 25.1506 4.95194 24.8578 5.15917H15.2807C15.1482 5.25435 15.0157 5.34953 14.8855 5.44712H0.475891V6.04953H14.1096C13.9819 6.15314 13.8554 6.25796 13.7301 6.36399H23.3072C23.0759 6.56037 22.8482 6.76158 22.6241 6.96639ZM27.8663 3.35194H48.3361C45.1589 1.7621 41.654 0.936936 38.1012 0.942298C36.4578 0.942298 34.8566 1.11579 33.312 1.44471C31.7376 1.11001 30.1325 0.941616 28.5229 0.942298C25.9518 0.942298 23.4807 1.36639 21.1735 2.14712H0.475891V2.74953H29.1711C28.7299 2.93654 28.2947 3.13745 27.8663 3.35194ZM134.51 0.602539C135.301 0.602539 135.923 0.800129 136.375 1.19531C136.846 1.57242 137.081 2.09892 137.081 2.77844C137.081 3.45676 136.846 3.9929 136.375 4.38808C135.923 4.76519 135.301 4.95435 134.51 4.95435C133.719 4.95435 133.088 4.76519 132.617 4.38808C132.165 3.9929 131.939 3.45676 131.939 2.77844C131.939 2.10013 132.165 1.57362 132.617 1.19531C133.088 0.800129 133.719 0.602539 134.51 0.602539ZM136.713 7.58085V19.8712C136.713 20.6628 136.846 21.2001 137.11 21.4821C137.392 21.7652 137.863 21.9062 138.522 21.9062V22.4989C137.995 22.4732 137.467 22.4543 136.94 22.4423C136.215 22.4044 135.49 22.3855 134.764 22.3857C134.03 22.3857 133.286 22.405 132.533 22.4423C131.967 22.4548 131.402 22.4736 130.837 22.4989V21.9062C131.496 21.9062 131.958 21.7652 132.222 21.4821C132.504 21.2001 132.646 20.6628 132.646 19.8712V10.9712C132.646 10.1242 132.513 9.50133 132.249 9.10736C132.005 8.6929 131.534 8.48567 130.837 8.48567V7.8917C131.44 7.94832 132.024 7.97603 132.589 7.97603C133.38 7.97603 134.114 7.94832 134.793 7.8917C135.489 7.817 136.13 7.71338 136.713 7.58085Z" fill="#E6E8E9"/>
    <path fill-rule="evenodd" clip-rule="evenodd" d="M144.665 10.1736V7.58086C144.082 7.71339 143.441 7.817 142.745 7.8917C142.047 7.94833 141.312 7.97604 140.54 7.97604C139.975 7.97604 139.392 7.94833 138.788 7.8917V8.48568C139.466 8.48568 139.937 8.69291 140.201 9.10736C140.465 9.50254 140.596 10.1242 140.596 10.9712V25.0989C140.596 25.8519 140.465 26.3604 140.201 26.6242C139.957 26.8881 139.523 27.0194 138.901 27.0194V27.6134L140.399 27.529C141.086 27.5099 141.774 27.5003 142.461 27.5001C143.422 27.5001 144.327 27.5098 145.174 27.5278C146.04 27.5664 146.718 27.5941 147.208 27.6122V27.0194C146.417 27.0194 145.795 26.8688 145.343 26.5676C144.892 26.2857 144.665 25.7013 144.665 24.8158V21.9845C144.913 22.1917 145.205 22.3628 145.541 22.4989C146.143 22.764 146.812 22.8953 147.547 22.8953C148.546 22.8953 149.44 22.7158 150.231 22.358C151.036 22.0041 151.744 21.4614 152.294 20.776C152.877 20.0604 153.32 19.1845 153.622 18.1483C153.942 17.1122 154.102 15.9074 154.102 14.5315C154.102 12.9688 153.876 11.6688 153.424 10.6327C152.972 9.57724 152.369 8.79652 151.616 8.28809C150.863 7.76065 149.963 7.48369 149.045 7.49652C147.952 7.49652 146.992 7.77845 146.163 8.34351C145.511 8.78327 145.012 9.39291 144.665 10.1748V10.1736ZM144.665 11.1447V21.3869C144.822 21.5724 145.011 21.7266 145.23 21.8495C145.588 22.0375 145.993 22.1315 146.446 22.1315C147.293 22.1315 147.961 21.8495 148.452 21.2845C148.941 20.7001 149.289 19.8905 149.496 18.8544C149.723 17.8001 149.836 16.5471 149.836 15.0965C149.836 13.4772 149.733 12.205 149.525 11.2821C149.318 10.3592 149.035 9.70013 148.677 9.30495C148.319 8.90857 147.887 8.71098 147.377 8.71098C146.7 8.71098 146.078 8.97604 145.513 9.50254C145.088 9.91218 144.805 10.4604 144.665 11.1447Z" fill="#E6E8E9"/>
    <path d="M160.589 7.49637C161.381 7.49637 162.067 7.59998 162.652 7.80721C163.254 7.99516 163.688 8.18432 163.952 8.37227C164.592 8.806 164.988 8.52287 165.139 7.52408H165.731C165.694 8.05179 165.665 8.70239 165.647 9.47347C165.628 10.2277 165.618 11.2349 165.618 12.4976H165.025C164.929 11.7911 164.748 11.0987 164.488 10.4349C164.248 9.79071 163.85 9.21726 163.33 8.76745C162.84 8.33372 162.2 8.11685 161.408 8.11685C160.863 8.11685 160.401 8.27829 160.024 8.59878C159.647 8.89998 159.459 9.34215 159.459 9.92649C159.459 10.4915 159.629 10.9903 159.967 11.4241C160.307 11.8385 160.74 12.2434 161.267 12.6385C161.813 13.0156 162.378 13.4205 162.963 13.853C163.584 14.3241 164.149 14.7952 164.658 15.2662C165.145 15.6923 165.556 16.1989 165.872 16.7638C166.175 17.3096 166.325 17.959 166.325 18.7132C166.325 19.5602 166.08 20.3036 165.59 20.9446C165.1 21.5662 164.451 22.047 163.641 22.3855C162.849 22.7253 161.964 22.8952 160.986 22.8952C160.472 22.901 159.959 22.8439 159.459 22.7253C159.067 22.6277 158.688 22.4854 158.329 22.3012C158.084 22.1879 157.848 22.0843 157.623 21.9903C157.431 21.8846 157.232 21.7905 157.029 21.7084C156.841 21.6518 156.671 21.7168 156.52 21.906C156.389 22.094 156.286 22.3578 156.21 22.6964H155.617C155.654 22.094 155.683 21.359 155.701 20.4928C155.721 19.6265 155.73 18.4771 155.73 17.047H156.323C156.436 18.0638 156.643 18.9675 156.945 19.7578C157.246 20.5313 157.651 21.1434 158.159 21.5952C158.687 22.0289 159.346 22.2458 160.137 22.2458C160.458 22.2458 160.769 22.1795 161.07 22.047C161.371 21.9144 161.616 21.6976 161.805 21.3964C162.012 21.0952 162.116 20.7096 162.116 20.2397C162.116 19.4096 161.842 18.7217 161.295 18.1759C160.769 17.6301 160.09 17.0361 159.261 16.3964C158.659 15.906 158.084 15.4265 157.539 14.9554C157.032 14.4923 156.595 13.9597 156.239 13.3735C155.894 12.7717 155.719 12.0883 155.73 11.3952C155.73 10.5482 155.955 9.83251 156.407 9.24817C156.868 8.65774 157.485 8.20756 158.188 7.94817C158.952 7.64488 159.767 7.49149 160.589 7.49637ZM195.663 7.80721C195.172 7.59998 194.533 7.49637 193.741 7.49637C192.855 7.48737 191.981 7.70114 191.199 8.11805C190.427 8.51323 189.814 9.18191 189.361 10.1241V7.58191C188.778 7.71323 188.137 7.81685 187.441 7.89155C186.763 7.94817 186.028 7.97588 185.237 7.97588C184.672 7.97588 184.088 7.94817 183.486 7.89155V8.48552C184.182 8.48552 184.653 8.69275 184.898 9.10721C185.161 9.50239 185.293 10.1241 185.293 10.9711V19.8711C185.293 20.6626 185.152 21.2 184.87 21.4819C184.606 21.765 184.145 21.906 183.486 21.906V22.4988C184.05 22.4735 184.615 22.4546 185.181 22.4421C185.915 22.405 186.649 22.3861 187.384 22.3855C188.043 22.3855 188.684 22.4048 189.305 22.4421C189.946 22.4614 190.417 22.4807 190.718 22.4988V21.906C190.229 21.906 189.88 21.765 189.672 21.4819C189.465 21.2 189.361 20.6626 189.361 19.8711V12.0168C189.361 11.3952 189.484 10.8397 189.729 10.3494C189.993 9.84094 190.331 9.44576 190.746 9.16384C191.144 8.8865 191.617 8.73843 192.102 8.73974C192.536 8.73974 192.855 8.84335 193.063 9.05058C193.289 9.23854 193.44 9.51203 193.516 9.86986C193.59 10.2084 193.628 10.6132 193.628 11.0843V19.8711C193.628 20.6626 193.524 21.2 193.317 21.4819C193.129 21.765 192.781 21.906 192.272 21.906V22.4988C192.611 22.4807 193.11 22.4614 193.77 22.4421C195.106 22.3659 196.446 22.3659 197.782 22.4421C198.478 22.4614 198.996 22.4807 199.335 22.4988V21.906C198.733 21.906 198.308 21.765 198.064 21.4819C197.819 21.2 197.696 20.6626 197.696 19.8711V12.1421L197.695 12.0542L197.69 11.7687C197.734 11.2964 197.86 10.8355 198.064 10.4072C198.328 9.89757 198.666 9.49275 199.081 9.19155C199.495 8.89034 199.948 8.73974 200.437 8.73974C200.927 8.73974 201.286 8.84335 201.511 9.05058C201.755 9.23854 201.916 9.51203 201.992 9.86986C202.086 10.2084 202.133 10.6132 202.133 11.0843V19.8711C202.133 20.6626 202.029 21.2 201.822 21.4819C201.634 21.765 201.286 21.906 200.776 21.906V22.4988C201.116 22.4807 201.614 22.4614 202.274 22.4421C202.942 22.4042 203.61 22.3853 204.28 22.3855C204.977 22.3855 205.683 22.4048 206.399 22.4421C207.114 22.4614 207.652 22.4807 208.01 22.4988V21.906C207.351 21.906 206.88 21.765 206.596 21.4819C206.333 21.2 206.201 20.6626 206.201 19.8711V12.2711C206.201 11.3289 206.135 10.5759 206.004 10.0108C205.871 9.42649 205.655 8.95661 205.353 8.59878C205.052 8.25902 204.657 7.99637 204.166 7.80721C203.677 7.59998 203.036 7.49637 202.246 7.49637C201.286 7.49637 200.381 7.69396 199.534 8.08914C198.722 8.47709 198.064 9.21685 197.559 10.3084C197.542 10.2087 197.522 10.1094 197.499 10.0108C197.367 9.42649 197.151 8.95661 196.849 8.59878C196.548 8.25902 196.152 7.99637 195.663 7.80721ZM181.269 19.4193V7.5807C180.684 7.71323 180.045 7.81685 179.347 7.89155C178.67 7.94817 177.935 7.97588 177.143 7.97588C176.578 7.97588 175.995 7.94817 175.392 7.89155V8.48552C176.089 8.48552 176.56 8.69275 176.805 9.10721C177.069 9.50239 177.2 10.1241 177.2 10.9711V18.3735C177.2 18.9952 177.069 19.5602 176.805 20.0687C176.581 20.5342 176.24 20.9336 175.816 21.2277C175.42 21.5105 174.945 21.6591 174.459 21.6518C173.989 21.6518 173.631 21.5566 173.386 21.3687C173.132 21.1465 172.954 20.8502 172.877 20.5217C172.797 20.1121 172.759 19.6955 172.764 19.2783V7.5807C172.181 7.71323 171.54 7.81685 170.843 7.89155C170.165 7.94817 169.43 7.97588 168.64 7.97588C168.075 7.97588 167.49 7.94817 166.888 7.89155V8.48552C167.584 8.48552 168.055 8.69275 168.3 9.10721C168.564 9.50239 168.695 10.1241 168.695 10.9711V18.1193C168.695 19.0421 168.761 19.7964 168.894 20.3795C169.025 20.9638 169.252 21.4349 169.571 21.7927C169.854 22.1132 170.24 22.3771 170.73 22.5843C171.219 22.7903 171.86 22.8952 172.652 22.8952C173.631 22.8952 174.516 22.6964 175.307 22.3012C176.117 21.8867 176.748 21.2084 177.2 20.2675V22.8096C177.831 22.6543 178.474 22.5503 179.122 22.4988C179.8 22.4421 180.534 22.4144 181.325 22.4144C181.91 22.4144 182.493 22.4421 183.077 22.4988V21.906C182.399 21.906 181.928 21.7084 181.664 21.312C181.4 20.8976 181.269 20.2675 181.269 19.4205V19.4193Z" fill="#E6E8E9"/>
    <path fill-rule="evenodd" clip-rule="evenodd" d="M126.616 8.25915C125.579 7.75071 124.373 7.4965 122.999 7.4965C121.661 7.4965 120.465 7.75071 119.411 8.25915C118.375 8.76758 117.555 9.58686 116.953 10.717C116.369 11.8471 116.076 13.3447 116.076 15.2098C116.076 17.0748 116.369 18.5712 116.952 19.7025C117.554 20.8134 118.373 21.623 119.41 22.1314C120.465 22.6399 121.661 22.8953 122.999 22.8953C124.373 22.8953 125.579 22.6399 126.616 22.1314C127.65 21.623 128.461 20.8134 129.044 19.7025C129.629 18.5724 129.92 17.0748 129.92 15.2098C129.92 13.3447 129.629 11.8483 129.044 10.717C128.461 9.58686 127.65 8.76758 126.616 8.25915ZM121.106 9.75674C121.614 8.62662 122.246 8.06156 122.999 8.06156C123.771 8.06156 124.402 8.62662 124.891 9.75674C125.4 10.8676 125.654 12.6857 125.654 15.2098C125.654 17.7338 125.4 19.5519 124.891 20.6628C124.402 21.7736 123.771 22.3302 122.999 22.3302C122.246 22.3302 121.614 21.7736 121.106 20.6628C120.597 19.5519 120.343 17.7338 120.343 15.2098C120.343 12.6857 120.596 10.8676 121.106 9.75674ZM106.863 27.811C105.694 27.811 104.649 27.7073 103.726 27.5001C102.823 27.3122 102.107 27.011 101.579 26.5965C101.071 26.2001 100.817 25.711 100.817 25.1266C100.817 24.5423 101.079 24.0158 101.607 23.5447C102.135 23.0929 102.917 22.7351 103.953 22.4712L104.206 22.923C103.882 23.1659 103.613 23.4737 103.416 23.8266C103.265 24.1664 103.189 24.5146 103.189 24.8724C103.189 25.664 103.547 26.2664 104.264 26.6796C104.999 27.1134 105.987 27.3302 107.23 27.3302C108.077 27.3302 108.831 27.217 109.49 26.9917C110.169 26.7652 110.695 26.4254 111.072 25.9748C111.469 25.5218 111.666 24.9664 111.666 24.3073C111.666 23.7423 111.459 23.2616 111.044 22.8664C110.63 22.4893 109.801 22.3013 108.558 22.3013H106.806C106.035 22.3013 105.355 22.217 104.772 22.0471C104.206 21.8784 103.764 21.6134 103.443 21.2555C103.124 20.8796 102.964 20.4085 102.964 19.8435C102.964 19.0519 103.275 18.3555 103.896 17.7519C104.383 17.2796 105.055 16.8302 105.913 16.4049C105.349 16.3348 104.795 16.1994 104.263 16.0013C103.416 15.6808 102.747 15.1905 102.258 14.5314C101.767 13.8724 101.523 13.0254 101.523 11.9893C101.523 10.9531 101.767 10.1049 102.258 9.4459C102.747 8.76758 103.416 8.27722 104.264 7.97602C105.111 7.65674 106.071 7.4965 107.144 7.4965C108.219 7.4965 109.179 7.65674 110.026 7.97722C110.585 8.17481 111.065 8.45553 111.469 8.81698C111.708 8.4712 112 8.16276 112.343 7.89168C112.984 7.40252 113.672 7.15674 114.406 7.15674C115.008 7.15674 115.461 7.32662 115.763 7.66638C116.083 7.98565 116.243 8.40975 116.243 8.93746C116.243 9.50252 116.091 9.92541 115.79 10.2085C115.489 10.4736 115.15 10.6049 114.773 10.6049C114.442 10.6005 114.122 10.4804 113.87 10.2652C113.605 10.0387 113.455 9.70011 113.418 9.2483C113.385 8.84349 113.499 8.34228 113.758 7.74228C113.208 7.97602 112.784 8.24228 112.485 8.54228C112.26 8.75946 112.063 9.0044 111.9 9.2712C111.946 9.32782 111.99 9.38686 112.032 9.4459C112.523 10.1049 112.767 10.9519 112.767 11.9881C112.767 13.0242 112.523 13.8724 112.032 14.5314C111.543 15.1905 110.875 15.6808 110.026 16.0013C109.179 16.3206 108.219 16.4808 107.144 16.4808C106.984 16.481 106.823 16.4774 106.663 16.47C106.408 16.6423 106.164 16.8254 105.93 17.0182C105.785 17.1318 105.668 17.2778 105.59 17.4446C105.511 17.6113 105.473 17.7942 105.478 17.9784C105.478 18.5808 105.855 18.882 106.608 18.882H109.688C110.724 18.882 111.647 19.0049 112.457 19.2495C113.285 19.4953 113.935 19.9001 114.406 20.4652C114.896 21.011 115.141 21.7266 115.141 22.6122C115.141 23.5351 114.84 24.3917 114.237 25.1832C113.653 25.9748 112.749 26.6049 111.524 27.076C110.3 27.5664 108.746 27.811 106.863 27.811ZM107.144 15.9724C107.654 15.9724 108.048 15.6905 108.331 15.1254C108.614 14.5411 108.755 13.4953 108.755 11.9893C108.755 10.482 108.614 9.44589 108.331 8.88083C108.049 8.2965 107.654 8.00493 107.146 8.00493C106.655 8.00493 106.26 8.2965 105.959 8.88083C105.676 9.44589 105.535 10.482 105.535 11.9893C105.535 13.4953 105.676 14.5411 105.959 15.1254C106.26 15.6905 106.655 15.9724 107.144 15.9724ZM97.1589 8.25915C96.1228 7.75071 94.918 7.4965 93.5433 7.4965C92.2059 7.4965 91.0095 7.75071 89.9553 8.25915C88.9192 8.76758 88.0999 9.58686 87.4975 10.717C86.9131 11.8471 86.6204 13.3447 86.6204 15.2098C86.6204 17.0748 86.9131 18.5712 87.4963 19.7025C88.0987 20.8134 88.9179 21.623 89.9541 22.1314C91.0095 22.6399 92.2059 22.8953 93.5433 22.8953C94.918 22.8953 96.124 22.6399 97.1589 22.1314C98.1951 21.623 99.0047 20.8134 99.589 19.7025C100.173 18.5724 100.465 17.0748 100.465 15.2098C100.465 13.3447 100.173 11.8483 99.589 10.717C99.0059 9.58686 98.1951 8.76758 97.1589 8.25915ZM91.6493 9.75674C92.1589 8.62662 92.789 8.06156 93.5433 8.06156C94.3143 8.06156 94.9457 8.62662 95.4348 9.75674C95.9445 10.8676 96.1987 12.6857 96.1987 15.2098C96.1987 17.7338 95.9445 19.5519 95.436 20.6628C94.9457 21.7736 94.3155 22.3302 93.5433 22.3302C92.789 22.3302 92.1577 21.7736 91.6493 20.6628C91.1408 19.5519 90.8866 17.7338 90.8866 15.2098C90.8866 12.6857 91.1408 10.8676 91.6493 9.75674Z" fill="#E6E8E9"/>
    <path d="M79.0109 2.49512V3.06138C78.3711 3.07945 77.8807 3.15415 77.5422 3.28668C77.3872 3.33915 77.2472 3.42819 77.1339 3.54627C77.0207 3.66434 76.9375 3.80798 76.8916 3.965C76.7795 4.28427 76.7229 4.79391 76.7229 5.4903V19.8433C76.7229 20.4264 76.7603 20.8602 76.8362 21.1433C76.9301 21.4252 77.1 21.6132 77.3446 21.7084C77.6084 21.8023 77.9952 21.8493 78.5024 21.8493H79.888C80.5265 21.8493 81.1301 21.6987 81.6952 21.3975C82.2615 21.0963 82.7687 20.6722 83.2205 20.1252C83.697 19.5177 84.0785 18.8413 84.3518 18.1192C84.653 17.3481 84.8783 16.4903 85.0289 15.5481H85.6795C85.6229 16.1891 85.5952 17.018 85.5952 18.0349C85.5952 18.4686 85.6036 19.0987 85.6229 19.9276C85.6422 20.7566 85.6976 21.6144 85.7916 22.4987C84.7093 22.4588 83.6264 22.4399 82.5434 22.4421C81.3386 22.424 80.2639 22.4144 79.3217 22.4144H77.5145C76.7795 22.4144 75.988 22.424 75.141 22.4421C74.2928 22.4421 73.4362 22.4517 72.5699 22.471C71.7024 22.471 70.8831 22.4807 70.1121 22.4987V21.9337C70.7145 21.8963 71.1663 21.8204 71.4675 21.7084C71.7687 21.5951 71.9663 21.3686 72.0615 21.0301C72.1735 20.6903 72.2301 20.1819 72.2301 19.5035V5.4903C72.2301 4.79271 72.1735 4.28548 72.0615 3.965C72.0244 3.80827 71.9477 3.66364 71.8389 3.54491C71.7301 3.42617 71.5927 3.33727 71.4398 3.28668C71.1386 3.15415 70.6952 3.07945 70.1121 3.06018V2.49512C71.5994 2.55022 73.0876 2.57834 74.5759 2.57945C75.4048 2.57945 76.2145 2.57102 77.0048 2.55174C77.8157 2.53247 78.4843 2.51439 79.0109 2.49512Z" fill="#E6E8E9"/>
    <path fill-rule="evenodd" clip-rule="evenodd" d="M205.14 45.8473C205.1 45.6449 205.126 45.3811 205.222 45.0558L209.201 30.6377C208.564 30.899 207.905 31.1026 207.231 31.2461C206.541 31.3823 205.749 31.4558 204.855 31.4702L204.713 31.8967C205.377 31.8967 205.79 32.0052 205.953 32.222C206.114 32.4389 206.135 32.7762 206.013 33.2365L205.071 36.7895C205.012 36.6181 204.91 36.4647 204.775 36.3437C204.544 36.1269 204.226 36.0184 203.82 36.0184C203.008 36.0184 202.257 36.2016 201.566 36.5666C200.872 36.946 200.247 37.4406 199.718 38.0293C199.162 38.6258 198.691 39.2954 198.317 40.0196C197.948 40.7243 197.655 41.4663 197.443 42.2329C197.251 42.8932 197.148 43.5765 197.138 44.2642C197.138 44.9136 197.241 45.4485 197.443 45.8678C197.647 46.2738 197.924 46.5787 198.276 46.7811C198.628 46.9714 199.02 47.0654 199.454 47.0654C200.117 47.0654 200.713 46.8702 201.241 46.4775C201.769 46.0714 202.263 45.4485 202.724 44.6088C202.917 44.2666 203.111 43.8823 203.303 43.4558L203.17 43.9594C203.047 44.3561 202.966 44.7642 202.926 45.1775C202.9 45.5293 202.926 45.8281 203.008 46.0714C203.17 46.7341 203.671 47.0666 204.511 47.0666C204.822 47.0666 205.14 47.0052 205.465 46.8835C205.79 46.7618 206.094 46.5522 206.378 46.2534C206.677 45.9558 206.913 45.5305 207.089 44.9738L207.577 43.4919H207.191L206.866 44.4052C206.623 45.0967 206.393 45.563 206.176 45.8064C205.972 46.0377 205.763 46.1522 205.546 46.1522C205.316 46.1522 205.181 46.0509 205.14 45.8473ZM204.057 40.6184C203.903 41.1136 203.737 41.5847 203.557 42.0293C203.218 42.8967 202.859 43.6413 202.479 44.2642C202.114 44.8726 201.755 45.3461 201.403 45.6859C201.052 46.01 200.74 46.1726 200.47 46.1726C200.212 46.1726 200.023 46.0509 199.901 45.8076C199.793 45.5497 199.738 45.1642 199.738 44.6497C199.738 43.9184 199.819 43.1738 199.982 42.416C200.144 41.6449 200.367 40.9064 200.652 40.2028C200.913 39.5424 201.24 38.9096 201.626 38.3136C201.993 37.7449 202.378 37.2979 202.784 36.9726C203.203 36.6473 203.617 36.4859 204.023 36.4859C204.294 36.4859 204.511 36.5811 204.673 36.7702C204.787 36.8931 204.873 37.0714 204.934 37.3076L204.057 40.6184Z" fill="#E6E8E9"/>
    <path d="M191.626 46.7807H189.129L191.565 38.0289C191.688 37.6229 191.728 37.3386 191.688 37.1759C191.647 37.0133 191.525 36.9326 191.322 36.9326C191.065 36.9326 190.828 37.0615 190.611 37.3181C190.394 37.5747 190.171 38.0289 189.941 38.6795L189.595 39.6326H189.21L189.737 38.1097C189.928 37.5675 190.164 37.1494 190.448 36.8506C190.732 36.5398 191.045 36.3229 191.383 36.2012C191.722 36.0795 192.066 36.0181 192.418 36.0181C192.852 36.0181 193.17 36.106 193.372 36.2832C193.589 36.4591 193.725 36.6892 193.779 36.9735C193.848 37.28 193.861 37.5961 193.819 37.9073C193.793 38.2326 193.738 38.5506 193.657 38.8615L193.33 40.135L193.413 39.9181C193.793 38.9567 194.158 38.1916 194.51 37.6229C194.876 37.041 195.261 36.6277 195.667 36.3844C196.065 36.1426 196.522 36.0158 196.988 36.0181C197.475 36.0181 197.847 36.1603 198.105 36.4446C198.376 36.7289 198.511 37.0807 198.511 37.5012C198.511 37.8386 198.429 38.1579 198.267 38.4554C198.109 38.7347 197.886 38.9716 197.617 39.1458C197.36 39.3085 197.063 39.3892 196.724 39.3892C196.385 39.3892 196.114 39.3012 195.911 39.1253C195.722 38.9494 195.626 38.6916 195.626 38.3542C195.626 38.0554 195.695 37.7856 195.83 37.541C195.961 37.3029 196.14 37.0954 196.358 36.9326C196.575 36.7567 196.812 36.635 197.069 36.5663C197.04 36.5384 197.005 36.5177 196.967 36.506C196.921 36.4917 196.873 36.4848 196.825 36.4856C196.528 36.4856 196.223 36.594 195.911 36.8109C195.6 37.0133 195.275 37.3458 194.936 37.806C194.598 38.2663 194.253 38.8747 193.901 39.6326C193.504 40.5287 193.151 41.4439 192.845 42.3747C192.691 42.8253 192.537 43.3097 192.383 43.8289L191.626 46.7807Z" fill="#E6E8E9"/>
    <path fill-rule="evenodd" clip-rule="evenodd" d="M184.038 43.6437L183.953 43.9594C183.825 44.4179 183.736 44.8868 183.689 45.3606C183.648 45.7943 183.715 46.1594 183.891 46.457C184.162 46.863 184.623 47.0666 185.272 47.0666C185.584 47.0666 185.895 47.0052 186.207 46.8835C186.531 46.7618 186.836 46.5522 187.12 46.2534C187.405 45.9425 187.642 45.5088 187.831 44.9546L188.34 43.4726H187.953L187.648 44.3859C187.405 45.0895 187.168 45.557 186.938 45.7871C186.708 46.016 186.484 46.1317 186.267 46.1317C186.091 46.1317 185.977 46.0775 185.923 45.969C185.88 45.8311 185.866 45.686 185.882 45.5425C185.908 45.3704 185.949 45.2007 186.003 45.0353L188.624 36.0184C188.216 36.1159 187.802 36.1839 187.384 36.222C186.965 36.263 186.512 36.2895 186.024 36.3028L185.73 37.3895C185.718 37.1136 185.637 36.845 185.496 36.6076C185.39 36.4225 185.236 36.2698 185.05 36.166C184.864 36.0622 184.653 36.0111 184.44 36.0184C183.844 36.0184 183.249 36.2016 182.653 36.5666C182.019 36.9649 181.451 37.4582 180.967 38.0293C180.421 38.652 179.944 39.3328 179.546 40.0594C179.146 40.788 178.826 41.5575 178.591 42.3546C178.37 43.0717 178.254 43.8173 178.247 44.5678C178.247 45.3269 178.423 45.9353 178.775 46.3955C179.126 46.8425 179.667 47.0654 180.399 47.0654C180.913 47.0654 181.407 46.9172 181.882 46.6196C182.368 46.3208 182.829 45.8269 183.262 45.1377C183.531 44.722 183.789 44.2244 184.038 43.6437ZM182.288 45.7052C181.976 45.9895 181.699 46.1317 181.455 46.1317C181.252 46.1317 181.096 46.0305 180.988 45.8269C180.893 45.61 180.846 45.2522 180.846 44.7509C180.846 44.0329 180.926 43.2955 181.089 42.5377C181.252 41.7787 181.468 41.0485 181.74 40.3449C182.024 39.6401 182.335 39.0112 182.673 38.4558C183.012 37.9015 183.35 37.4606 183.689 37.1353C184.041 36.81 184.372 36.6485 184.684 36.6485C185.008 36.6485 185.238 36.8112 185.375 37.1353C185.509 37.4293 185.544 37.8232 185.479 38.316L184.879 40.5353L184.948 40.1823C184.731 41.0485 184.473 41.8473 184.176 42.5787C183.917 43.2325 183.604 43.8639 183.242 44.4666C182.917 44.9943 182.599 45.4076 182.288 45.7052ZM175.517 45.0558C175.421 45.3811 175.395 45.6449 175.436 45.8473C175.476 46.0509 175.612 46.1522 175.842 46.1522C176.059 46.1522 176.268 46.0377 176.471 45.8076C176.688 45.563 176.918 45.0967 177.161 44.4052L177.487 43.4919H177.872L177.385 44.9738C177.209 45.5293 176.972 45.9558 176.675 46.2534C176.421 46.5301 176.109 46.7456 175.76 46.8835C175.456 47.0017 175.132 47.0637 174.806 47.0666C173.967 47.0666 173.466 46.7341 173.303 46.0714C173.218 45.7817 173.19 45.4779 173.223 45.1775C173.249 44.8256 173.33 44.4184 173.466 43.9594L173.6 43.4558C173.406 43.8823 173.212 44.2666 173.019 44.6088C172.559 45.4485 172.065 46.0714 171.537 46.4762C171.023 46.8649 170.394 47.0724 169.749 47.0666C169.317 47.0666 168.924 46.9702 168.572 46.7823C168.209 46.5677 167.919 46.2491 167.74 45.8678C167.536 45.4485 167.435 44.9136 167.435 44.2642C167.435 43.6413 167.536 42.963 167.74 42.2329C167.942 41.4883 168.234 40.7509 168.612 40.0196C168.986 39.2957 169.458 38.6261 170.013 38.0293C170.568 37.4196 171.184 36.9329 171.861 36.5666C172.556 36.2002 173.33 36.0118 174.115 36.0184C174.521 36.0184 174.84 36.1269 175.07 36.3437C175.202 36.4606 175.302 36.6088 175.367 36.7895L176.308 33.2365C176.431 32.7762 176.411 32.4377 176.248 32.2208C176.085 32.004 175.672 31.8955 175.009 31.8955L175.152 31.4702C175.949 31.4657 176.744 31.3907 177.528 31.2461C178.201 31.1026 178.86 30.899 179.497 30.6377L175.517 45.0558ZM173.852 42.0293C174.032 41.5835 174.2 41.1136 174.352 40.6184L175.23 37.3076C175.188 37.1099 175.098 36.9255 174.968 36.7702C174.889 36.6769 174.789 36.6028 174.676 36.5536C174.564 36.5043 174.442 36.4812 174.319 36.4859C173.913 36.4859 173.5 36.6485 173.081 36.9726C172.673 37.2979 172.288 37.7449 171.923 38.3136C171.536 38.909 171.209 39.5414 170.948 40.2016C170.659 40.9184 170.435 41.6594 170.278 42.416C170.118 43.1499 170.036 43.8986 170.034 44.6497C170.034 45.1642 170.088 45.5497 170.196 45.8064C170.318 46.0509 170.508 46.1726 170.765 46.1726C171.036 46.1726 171.347 46.01 171.699 45.6847C172.052 45.3473 172.409 44.8726 172.776 44.263C173.198 43.5506 173.558 42.8033 173.852 42.0293Z" fill="#E6E8E9"/>
    <path d="M156.252 46.7807H158.749L158.984 45.8626L158.972 45.9289C159.23 44.9807 159.52 44.0675 159.846 43.1867C160.162 42.3462 160.514 41.5198 160.901 40.7096C161.267 39.9506 161.632 39.2879 161.999 38.7193C162.364 38.1506 162.715 37.7108 163.054 37.3988C163.393 37.0735 163.703 36.912 163.988 36.912C164.218 36.912 164.36 36.9928 164.414 37.1554C164.47 37.34 164.478 37.536 164.435 37.7241C164.394 37.9442 164.34 38.1614 164.272 38.3747L162.425 43.959C162.235 44.5277 162.126 45.0145 162.1 45.4205C162.072 45.8265 162.147 46.159 162.323 46.4157C162.459 46.6193 162.648 46.7747 162.891 46.8831C163.149 47.0036 163.454 47.0663 163.806 47.0663C164.13 47.0663 164.455 47.0048 164.781 46.8831C165.119 46.7747 165.43 46.5711 165.714 46.2735C166.012 45.9759 166.256 45.5422 166.446 44.9735L166.953 43.4916H166.567L166.242 44.4048C165.985 45.1096 165.742 45.5759 165.512 45.806C165.295 46.0373 165.085 46.1518 164.882 46.1518C164.665 46.1518 164.53 46.0638 164.476 45.8867C164.422 45.6988 164.455 45.4205 164.577 45.0554L166.567 39.0843C166.743 38.5566 166.831 38.0626 166.831 37.6024C166.844 37.1289 166.717 36.7494 166.446 36.4651C166.188 36.1675 165.728 36.0193 165.065 36.0193C164.564 36.0193 164.083 36.1277 163.623 36.3434C163.162 36.5602 162.715 36.9385 162.283 37.4807C161.849 38.0084 161.402 38.7265 160.942 39.6325C160.637 40.2437 160.356 40.8671 160.102 41.5012L160.779 38.8614C160.861 38.5361 160.922 38.2108 160.962 37.8867C161.003 37.5494 160.989 37.2434 160.922 36.9723C160.857 36.6924 160.691 36.4464 160.455 36.2819C160.225 36.106 159.887 36.0181 159.44 36.0181C158.897 36.0181 158.403 36.1675 157.956 36.4651C157.511 36.7626 157.144 37.3108 156.86 38.1096L156.332 39.6325H156.718L157.064 38.6783C157.307 38.0157 157.53 37.5614 157.734 37.3181C157.95 37.0614 158.187 36.9325 158.444 36.9325C158.634 36.9325 158.749 36.9867 158.79 37.0952C158.843 37.2036 158.858 37.3385 158.83 37.5012C158.8 37.6793 158.759 37.8555 158.708 38.0289L156.252 46.7807Z" fill="#E6E8E9"/>
    <path fill-rule="evenodd" clip-rule="evenodd" d="M151.076 43.959L151.161 43.6434C150.944 44.1619 150.685 44.6616 150.385 45.1373C149.952 45.8265 149.491 46.3217 149.004 46.6193C148.53 46.9169 148.036 47.0651 147.522 47.0651C146.79 47.0651 146.249 46.8422 145.898 46.3952C145.544 45.9349 145.369 45.3265 145.369 44.5675C145.369 43.8639 145.484 43.1265 145.714 42.3542C145.949 41.5572 146.269 40.7877 146.669 40.059C147.066 39.3322 147.543 38.6513 148.09 38.0289C148.574 37.4579 149.142 36.9646 149.776 36.5663C150.371 36.2012 150.967 36.0181 151.563 36.0181C152.023 36.0181 152.375 36.2145 152.619 36.6084C152.749 36.8096 152.828 37.0699 152.853 37.3892L153.147 36.3024C153.634 36.2892 154.088 36.2626 154.507 36.2217C154.941 36.1807 155.353 36.1132 155.746 36.0181L153.126 45.0361C153.071 45.2014 153.031 45.3711 153.005 45.5434C152.989 45.6868 153.003 45.832 153.046 45.9699C153.1 46.0783 153.214 46.1325 153.39 46.1325C153.607 46.1325 153.83 46.0181 154.06 45.7879C154.29 45.5578 154.528 45.0892 154.771 44.3867L155.076 43.4723H155.461L154.954 44.9542C154.765 45.5096 154.528 45.9422 154.243 46.2554C153.99 46.5314 153.678 46.7465 153.33 46.8843C153.033 47.0035 152.715 47.0657 152.395 47.0675C151.746 47.0675 151.285 46.8639 151.014 46.4578C150.838 46.1602 150.771 45.7952 150.812 45.3614C150.859 44.8876 150.948 44.4176 151.076 43.959ZM148.577 46.1313C148.822 46.1313 149.099 45.9892 149.411 45.7048C149.722 45.4072 150.04 44.994 150.365 44.4663C150.689 43.9385 151.001 43.3096 151.299 42.5783C151.596 41.847 151.854 41.0482 152.071 40.1807L152.002 40.5349L152.602 38.3169C152.666 37.8229 152.631 37.4289 152.498 37.1361C152.361 36.8108 152.131 36.6482 151.806 36.6482C151.495 36.6482 151.164 36.8108 150.812 37.1349C150.473 37.4602 150.135 37.9 149.796 38.4554C149.458 39.0096 149.146 39.6398 148.861 40.3434C148.589 41.0564 148.371 41.7895 148.212 42.5361C148.053 43.2636 147.971 44.0059 147.969 44.7506C147.969 45.2518 148.016 45.6108 148.111 45.8265C148.219 46.0301 148.375 46.1313 148.577 46.1313Z" fill="#E6E8E9"/>
    <path d="M146.777 36.7088L146.838 36.3028H144.419L145.376 32.9726C144.976 33.0712 144.568 33.1393 144.158 33.1763C143.738 33.216 143.284 33.2437 142.798 33.257L141.924 36.3028H140.076L139.975 36.7088H141.808L139.73 43.9594C139.554 44.5546 139.494 45.0895 139.548 45.563C139.616 46.0232 139.805 46.3895 140.117 46.6594C140.441 46.9305 140.908 47.0666 141.518 47.0666C142.208 47.0666 142.804 46.8835 143.305 46.5172C143.806 46.1522 144.199 45.5498 144.483 44.71L144.889 43.4919H144.502L144.199 44.3244C143.954 45.0016 143.684 45.4751 143.385 45.7461C143.101 46.0172 142.817 46.1522 142.532 46.1522C142.421 46.1559 142.31 46.1339 142.208 46.0879C142.106 46.042 142.016 45.9733 141.945 45.8871C141.808 45.7124 141.795 45.4353 141.904 45.0558L144.302 36.7088H146.777ZM140.052 32.2618C139.917 32.6136 139.734 33.1293 139.504 33.8052C139.287 34.4678 139.071 35.3353 138.854 36.404H138.448C138.488 36.2148 138.516 36.0184 138.529 35.816C138.555 35.6344 138.568 35.4513 138.57 35.2678C138.57 34.7389 138.461 34.2799 138.245 33.8871C138.036 33.4752 137.702 33.1405 137.29 32.9317C136.871 32.6883 136.329 32.5666 135.666 32.5666C134.948 32.5666 134.338 32.7558 133.838 33.1353C133.337 33.5004 133.087 34.0895 133.087 34.9016C133.087 35.4028 133.201 35.8775 133.431 36.3232C133.676 36.757 133.981 37.1835 134.346 37.6028C134.725 38.0088 135.124 38.422 135.543 38.8413C135.964 39.2473 136.357 39.6678 136.722 40.1004C137.087 40.5341 137.385 40.9943 137.616 41.4811C137.859 41.9558 137.981 42.4763 137.981 43.0449C137.981 43.763 137.805 44.3787 137.453 44.8931C137.11 45.3985 136.659 45.8215 136.132 46.1317C135.581 46.4471 134.986 46.6798 134.366 46.822C133.77 46.9813 133.156 47.0635 132.538 47.0666C131.929 47.0666 131.422 47.0184 131.016 46.9244C130.669 46.8591 130.333 46.7426 130.02 46.5787C129.755 46.4329 129.49 46.2843 129.228 46.1329C129.108 46.0326 128.97 45.9565 128.822 45.9088C128.727 45.8612 128.624 45.8334 128.518 45.8269C128.341 45.8269 128.193 45.9148 128.071 46.0919C127.911 46.3564 127.775 46.6346 127.665 46.9232H127.258C127.593 46.0974 127.872 45.2497 128.091 44.3859C128.253 43.763 128.436 42.9847 128.64 42.0498H129.046C128.989 42.3187 128.942 42.5896 128.904 42.8618C128.863 43.1329 128.849 43.404 128.863 43.6751C128.904 44.622 129.194 45.3534 129.736 45.8678C130.291 46.3823 131.104 46.6389 132.172 46.6389C133.079 46.6389 133.764 46.4497 134.224 46.0714C134.684 45.6787 134.914 45.11 134.914 44.3654C134.914 43.7967 134.806 43.2811 134.589 42.822C134.384 42.3446 134.111 41.8997 133.777 41.5016C133.433 41.0896 133.074 40.6901 132.701 40.304C132.327 39.9177 131.968 39.5179 131.624 39.1052C131.292 38.6951 131.012 38.245 130.791 37.7654C130.57 37.2526 130.459 36.6987 130.467 36.1401C130.467 35.4642 130.61 34.8751 130.894 34.3738C131.18 33.885 131.568 33.4627 132.03 33.1353C132.504 32.7967 133.033 32.5424 133.594 32.3835C134.139 32.2113 134.708 32.1223 135.279 32.1196C136.011 32.1196 136.613 32.2076 137.087 32.3847C137.561 32.5594 137.967 32.7702 138.306 33.0136L138.691 33.257C138.813 33.3112 138.908 33.3377 138.976 33.3377C139.165 33.3377 139.389 32.9799 139.646 32.2618H140.052Z" fill="#E6E8E9"/>
    <path fill-rule="evenodd" clip-rule="evenodd" d="M120.449 45.8473C120.408 45.6449 120.436 45.3811 120.531 45.0558L124.511 30.6377C123.874 30.899 123.214 31.1026 122.541 31.2461C121.851 31.3823 121.059 31.4558 120.165 31.4702L120.023 31.8967C120.685 31.8967 121.1 32.0052 121.261 32.222C121.424 32.4389 121.445 32.7762 121.323 33.2365L120.381 36.7895C120.321 36.6181 120.219 36.4646 120.084 36.3437C119.854 36.1269 119.536 36.0184 119.13 36.0184C118.317 36.0184 117.566 36.2016 116.876 36.5666C116.181 36.946 115.556 37.4406 115.028 38.0293C114.472 38.6258 114.001 39.2954 113.626 40.0196C113.258 40.7243 112.965 41.4662 112.753 42.2329C112.56 42.8931 112.458 43.5764 112.448 44.2642C112.448 44.9136 112.551 45.4485 112.753 45.8678C112.957 46.2738 113.234 46.5787 113.585 46.7811C113.937 46.9714 114.33 47.0654 114.764 47.0654C115.426 47.0654 116.023 46.8702 116.551 46.4775C117.078 46.0714 117.572 45.4485 118.032 44.6088C118.225 44.2666 118.419 43.8823 118.613 43.4558L118.481 43.9594C118.357 44.3559 118.275 44.7641 118.236 45.1775C118.204 45.4779 118.231 45.7817 118.317 46.0714C118.479 46.7341 118.979 47.0666 119.82 47.0666C120.131 47.0666 120.449 47.0052 120.775 46.8835C121.1 46.7618 121.404 46.5522 121.688 46.2534C121.987 45.9558 122.223 45.5305 122.399 44.9738L122.887 43.4919H122.501L122.176 44.4052C121.932 45.0967 121.702 45.563 121.485 45.8064C121.282 46.0377 121.072 46.1522 120.855 46.1522C120.626 46.1522 120.49 46.0509 120.449 45.8473ZM119.365 40.6184C119.213 41.1136 119.047 41.5847 118.865 42.0293C118.528 42.8967 118.169 43.6413 117.789 44.2642C117.424 44.8726 117.065 45.3461 116.713 45.6859C116.361 46.01 116.051 46.1726 115.778 46.1726C115.522 46.1726 115.332 46.0509 115.211 45.8076C115.102 45.5497 115.048 45.1642 115.048 44.6497C115.048 43.9184 115.129 43.1738 115.291 42.416C115.454 41.6449 115.677 40.9064 115.961 40.2028C116.223 39.5423 116.55 38.9095 116.937 38.3136C117.302 37.7449 117.688 37.2979 118.094 36.9726C118.513 36.6473 118.926 36.4859 119.332 36.4859C119.604 36.4859 119.82 36.5811 119.983 36.7702C120.096 36.8931 120.183 37.0714 120.243 37.3076L119.365 40.6184Z" fill="#E6E8E9"/>
    <path d="M103.763 46.7807H101.265L103.723 38.0289C103.777 37.8398 103.817 37.6638 103.843 37.5012C103.874 37.3651 103.86 37.2229 103.804 37.0952C103.763 36.9867 103.647 36.9325 103.458 36.9325C103.201 36.9325 102.964 37.0614 102.747 37.3181C102.545 37.5614 102.32 38.0157 102.077 38.6795L101.732 39.6325H101.347L101.875 38.1096C102.159 37.3108 102.525 36.7626 102.971 36.4651C103.417 36.1675 103.911 36.0193 104.453 36.0193C104.9 36.0193 105.239 36.106 105.469 36.2819C105.705 36.4462 105.871 36.6922 105.936 36.9723C106.004 37.2434 106.017 37.5482 105.977 37.8867C105.936 38.215 105.874 38.5405 105.794 38.8614L105.117 41.5024C105.404 40.7928 105.683 40.1711 105.957 39.6325C106.417 38.7265 106.863 38.0084 107.296 37.4807C107.73 36.9385 108.176 36.5602 108.636 36.3434C109.098 36.1265 109.577 36.0181 110.078 36.0181C110.741 36.0181 111.202 36.1675 111.459 36.4651C111.73 36.7494 111.859 37.1277 111.845 37.6024C111.845 38.0626 111.758 38.5566 111.581 39.0843L109.592 45.0554C109.469 45.4205 109.435 45.6988 109.489 45.8867C109.543 46.0638 109.679 46.1518 109.896 46.1518C110.099 46.1518 110.308 46.0373 110.525 45.8072C110.755 45.5759 110.999 45.1084 111.257 44.4048L111.582 43.4916H111.967L111.459 44.9735C111.27 45.5422 111.025 45.9759 110.729 46.2747C110.474 46.5533 110.152 46.7626 109.794 46.8831C109.483 47.0025 109.153 47.0646 108.819 47.0663C108.467 47.0663 108.163 47.0048 107.906 46.8831C107.661 46.7747 107.472 46.6181 107.337 46.4157C107.161 46.159 107.087 45.8265 107.113 45.4205C107.141 45.0145 107.249 44.5277 107.439 43.959L109.287 38.3747C109.354 38.1578 109.408 37.941 109.449 37.7241C109.492 37.536 109.485 37.34 109.429 37.1554C109.375 36.9928 109.232 36.912 109.002 36.912C108.718 36.912 108.406 37.0747 108.069 37.3988C107.73 37.7108 107.377 38.1506 107.012 38.7193C106.607 39.36 106.241 40.0247 105.916 40.7096C105.551 41.4687 105.198 42.2928 104.859 43.1867C104.534 44.0663 104.245 44.9807 103.987 45.9289L103.999 45.8626L103.763 46.7807Z" fill="#E6E8E9"/>
    <path fill-rule="evenodd" clip-rule="evenodd" d="M96.1747 43.6435L96.0903 43.9592C95.9624 44.4179 95.8738 44.8867 95.8253 45.3604C95.7843 45.7941 95.8518 46.1592 96.0277 46.4568C96.2988 46.8628 96.759 47.0664 97.4096 47.0664C97.7568 47.0639 98.0999 46.9905 98.4177 46.8507C98.7355 46.7108 99.0214 46.5075 99.2578 46.2532C99.5422 45.9423 99.7783 45.5086 99.9687 44.9544L100.475 43.4724H100.089L99.7855 44.3857C99.541 45.0893 99.3036 45.5568 99.0747 45.7869C98.8446 46.0158 98.6205 46.1315 98.4048 46.1315C98.2277 46.1315 98.1132 46.0773 98.059 45.9688C98.0167 45.8309 98.0027 45.6858 98.0181 45.5423C98.0458 45.3664 98.0855 45.1977 98.1409 45.0351L100.76 36.0182C100.353 36.1156 99.9389 36.1837 99.5217 36.2218C99.1012 36.2628 98.6482 36.2893 98.1602 36.3026L97.8662 37.3893C97.8537 37.1134 97.7734 36.8449 97.6325 36.6074C97.5268 36.4225 97.3727 36.2699 97.1867 36.1661C97.0007 36.0623 96.79 36.0112 96.5771 36.0182C95.9807 36.0182 95.3843 36.2014 94.7891 36.5664C94.194 36.9327 93.6325 37.4194 93.1036 38.0291C92.5566 38.6515 92.0798 39.3323 91.6819 40.0592C91.2825 40.7879 90.9626 41.5573 90.7277 42.3544C90.5062 43.0715 90.3901 43.8171 90.3831 44.5676C90.3831 45.3267 90.559 45.9351 90.9108 46.3953C91.2626 46.8423 91.8048 47.0652 92.5349 47.0652C93.0494 47.0652 93.5446 46.917 94.0169 46.6194C94.5048 46.3206 94.9663 45.8267 95.3988 45.1375C95.6675 44.7218 95.9253 44.2242 96.1747 43.6435ZM94.4241 45.705C94.1132 45.9893 93.8349 46.1315 93.5916 46.1315C93.3879 46.1315 93.2325 46.0303 93.1241 45.8267C93.0301 45.6098 92.9819 45.252 92.9819 44.7508C92.9819 44.0327 93.0638 43.2953 93.2265 42.5375C93.3879 41.7785 93.6048 41.0483 93.8759 40.3447C94.1602 39.6399 94.4711 39.011 94.8096 38.4556C95.1482 37.9014 95.4867 37.4604 95.8253 37.1351C96.1771 36.8098 96.5084 36.6483 96.8205 36.6483C97.1458 36.6483 97.3747 36.811 97.5108 37.1351C97.6458 37.4291 97.6795 37.823 97.6156 38.3158L97.0156 40.5351L97.0843 40.1821C96.8675 41.0483 96.6108 41.8471 96.3132 42.5785C96.0144 43.3086 95.7036 43.9387 95.3783 44.4664C95.053 44.9941 94.7349 45.4074 94.4241 45.705Z" fill="#E6E8E9"/>
    <path d="M84.9517 46.7807H82.4541L84.8902 38.0289C85.0119 37.6229 85.0529 37.3386 85.0119 37.1759C84.9722 37.0133 84.8505 36.9326 84.6469 36.9326C84.3902 36.9326 84.1529 37.0615 83.936 37.3181C83.7192 37.5747 83.4963 38.0289 83.2662 38.6795L82.9204 39.6326H82.5348L83.0625 38.1097C83.2529 37.5675 83.489 37.1494 83.7734 36.8506C84.0577 36.5398 84.3698 36.3229 84.7083 36.2012C85.0457 36.0795 85.3915 36.0181 85.7445 36.0181C86.177 36.0181 86.4951 36.106 86.6975 36.2832C86.9128 36.4559 87.0577 36.7015 87.1047 36.9735C87.1722 37.2579 87.1854 37.5687 87.1445 37.9073C87.118 38.2326 87.0637 38.5506 86.9818 38.8615L86.6565 40.135L86.689 40.047L86.7384 39.9181C87.118 38.9567 87.483 38.1916 87.8348 37.6229C88.2011 37.041 88.5866 36.6277 88.9927 36.3844C89.3905 36.1426 89.8476 36.0158 90.3131 36.0181C90.7999 36.0181 91.1722 36.1603 91.43 36.4446C91.6999 36.7289 91.836 37.0807 91.836 37.5012C91.836 37.8386 91.7541 38.1579 91.5914 38.4554C91.4339 38.7346 91.2111 38.9715 90.9421 39.1458C90.6737 39.3112 90.3633 39.3958 90.0481 39.3892C89.7107 39.3892 89.4396 39.3012 89.236 39.1253C89.0469 38.9494 88.9517 38.6916 88.9517 38.3542C88.9517 38.0554 89.0192 37.7856 89.1553 37.541C89.2902 37.2976 89.4661 37.0952 89.683 36.9326C89.8999 36.7567 90.136 36.635 90.3939 36.5663C90.3653 36.5386 90.3306 36.5179 90.2927 36.506C90.2657 36.4969 90.2378 36.4908 90.2095 36.488C90.1895 36.4861 90.1694 36.4853 90.1493 36.4856C89.8529 36.4856 89.5469 36.594 89.236 36.8109C88.9252 37.0133 88.5999 37.3458 88.2613 37.806C87.924 38.2663 87.5782 38.8747 87.2252 39.6326C86.8282 40.5286 86.476 41.4438 86.1698 42.3747C86.0168 42.8241 85.8625 43.3097 85.7083 43.8289L84.9517 46.7807Z" fill="#E6E8E9"/>
    <path fill-rule="evenodd" clip-rule="evenodd" d="M81.1529 33.1556C80.4758 32.6677 79.3927 32.4243 77.9035 32.4243C77.4433 32.4243 76.983 32.4315 76.5216 32.4448C76.0758 32.458 75.5614 32.4653 74.9794 32.4653H73.9638C73.5975 32.4508 73.2529 32.4448 72.9276 32.4448C72.6569 32.4328 72.3862 32.4192 72.1156 32.4038L72.0144 32.8098C72.5421 32.8098 72.9011 32.8773 73.0903 33.0134C73.2939 33.1339 73.3879 33.3243 73.3746 33.5821C73.3473 33.9109 73.2929 34.2369 73.212 34.5568L70.5312 44.6291C70.4108 45.1159 70.2746 45.4821 70.1252 45.7255C69.9903 45.9583 69.7733 46.1323 69.5168 46.2134C69.259 46.2942 68.8999 46.3484 68.4397 46.3749L68.3589 46.7809C68.5879 46.7689 68.8662 46.7616 69.1903 46.7616C69.5156 46.7472 69.8614 46.7412 70.2264 46.7412C71.2484 46.7101 72.2712 46.7169 73.2927 46.7616C73.8481 46.7737 74.3565 46.7821 74.8168 46.7821C75.6963 46.7821 76.5288 46.693 77.3144 46.5171C78.0384 46.3528 78.731 46.0721 79.365 45.6857C79.9322 45.3479 80.4121 44.8815 80.7662 44.3243C81.118 43.7821 81.2939 43.1472 81.2939 42.4159C81.2939 41.5894 80.9565 40.8785 80.2794 40.2833C79.6168 39.6869 78.5662 39.3351 77.1312 39.2267C78.0265 39.0981 78.8964 38.8311 79.7096 38.4351C80.4686 38.0424 81.0638 37.5616 81.4975 36.993C81.9341 36.453 82.1707 35.7789 82.1674 35.0845C82.1674 34.2725 81.8312 33.6291 81.1529 33.1556ZM74.671 39.4918L73.3132 44.6291C73.2324 44.9665 73.1782 45.2653 73.1517 45.5219C73.1373 45.7797 73.2047 45.9761 73.3541 46.1122C73.5035 46.2472 73.7806 46.3147 74.1867 46.3147C75.1481 46.3147 75.9336 46.1315 76.5421 45.7665C77.1382 45.4159 77.6132 44.8917 77.9035 44.264C78.2011 43.6134 78.3493 42.8821 78.3493 42.0713C78.3493 41.5689 78.2614 41.1291 78.0855 40.7508C77.9306 40.3665 77.6521 40.0447 77.2939 39.8363C76.9288 39.6062 76.4409 39.4918 75.8312 39.4918H74.671ZM74.7626 39.146H75.6903C76.4614 39.146 77.118 38.9496 77.6589 38.5568C78.2144 38.1508 78.6349 37.6231 78.9192 36.9737C79.2153 36.3303 79.3674 35.6301 79.365 34.9219C79.365 34.2448 79.23 33.7243 78.9589 33.358C78.7023 32.993 78.2481 32.8098 77.5975 32.8098C77.1252 32.8098 76.7867 32.905 76.583 33.0942C76.3806 33.2701 76.2047 33.6556 76.0553 34.2508L74.7626 39.146Z" fill="#E6E8E9"/>
  </g>
  <defs>
    <clipPath id="clip0_168_2514">
      <rect width="209.639" height="46.988" fill="white" transform="translate(0.475891 0.602539)"/>
    </clipPath>
  </defs>
</svg>
