<svg xmlns="http://www.w3.org/2000/svg" width="170" height="41" viewBox="0 0 170 41" fill="none">
  <g clip-path="url(#clip0_168_2532)">
    <path fill-rule="evenodd" clip-rule="evenodd" d="M10.1292 2.59619V40.0962H0.114441V2.59619H10.1292Z" fill="#E6E8E9"/>
    <path fill-rule="evenodd" clip-rule="evenodd" d="M15.1367 2.59619H36.4182C43.332 2.59619 48.9367 8.19263 48.9367 15.0962C48.9367 21.9998 43.332 27.5962 36.4182 27.5962H25.1515V40.0962H15.1367V2.59619ZM25.1515 17.5962H36.4182C37.801 17.5962 38.9219 16.4769 38.9219 15.0962C38.9219 13.7155 37.801 12.5962 36.4182 12.5962H25.1515V17.5962Z" fill="#E6E8E9"/>
    <path fill-rule="evenodd" clip-rule="evenodd" d="M86.4922 2.59619V21.9712C86.4922 26.4585 90.1352 30.0962 94.6292 30.0962C99.1232 30.0962 102.766 26.4585 102.766 21.9712V2.59619H112.781V21.9712C112.781 31.9814 104.654 40.0962 94.6292 40.0962C84.6042 40.0962 76.4774 31.9814 76.4774 21.9712V2.59619H86.4922Z" fill="#E6E8E9"/>
    <path fill-rule="evenodd" clip-rule="evenodd" d="M52.6922 20.0962C52.6922 10.4312 60.5388 2.59619 70.2181 2.59619H72.7218V12.5962H70.2181C66.0698 12.5962 62.707 15.9541 62.707 20.0962V21.3462C62.707 31.7015 54.2999 40.0962 43.9292 40.0962H42.6774V30.0962H43.9292C48.7689 30.0962 52.6922 26.1787 52.6922 21.3462V20.0962Z" fill="#E6E8E9"/>
    <path d="M169.114 3.84619C169.114 5.91726 167.433 7.59619 165.358 7.59619C163.284 7.59619 161.603 5.91726 161.603 3.84619C161.603 1.77512 163.284 0.0961914 165.358 0.0961914C167.433 0.0961914 169.114 1.77512 169.114 3.84619Z" fill="#E6E8E9"/>
    <path d="M123.534 40.0961L128.313 20.1142L131.866 32.1354C133.984 39.3052 144.155 39.3052 146.274 32.1354L149.826 20.1142L154.605 40.0961H164.901L157.387 8.67557C155.6 1.20352 145.055 0.926857 142.877 8.29499L139.07 21.1794L135.262 8.295C133.085 0.9269 122.539 1.20348 120.752 8.67556L113.238 40.0961H123.534Z" fill="#E6E8E9"/>
  </g>
  <defs>
    <clipPath id="clip0_168_2532">
      <rect width="169" height="40" fill="white" transform="translate(0.114441 0.0961914)"/>
    </clipPath>
  </defs>
</svg>
