<svg xmlns="http://www.w3.org/2000/svg" width="122" height="49" viewBox="0 0 122 49" fill="none">
<g clip-path="url(#clip0_168_2509)">
<path d="M6.69288 5.10241C7.00614 3.61566 8.48807 2.40964 9.9977 2.40964H18.2049L11.3796 34.7265H3.1724C1.66156 34.7265 0.690476 33.5217 1.00493 32.0337L6.69288 5.10241ZM34.0507 5.10241C34.3652 3.61566 35.8459 2.40964 37.3555 2.40964H45.5628L38.7375 34.7265H30.5302C29.0194 34.7265 28.0483 33.5217 28.3628 32.0337L34.0507 5.10241ZM88.7676 5.10241C89.0808 3.61566 90.5603 2.40964 92.0724 2.40964H100.28L93.4543 34.7265H85.2459C83.735 34.7265 82.7652 33.5217 83.0796 32.0337L88.7676 5.10241ZM48.2989 2.40964H56.5061C58.017 2.40964 58.9881 3.61446 58.6736 5.10241L52.9857 32.0337C52.6724 33.5217 51.1917 34.7265 49.6808 34.7265H41.4736L48.2989 2.40964ZM103.016 2.40964H111.223C112.734 2.40964 113.705 3.61446 113.39 5.10241L107.701 32.0337C107.388 33.5217 105.909 34.7265 104.398 34.7265H96.1893L103.016 2.40964ZM61.4098 5.10241C61.723 3.61566 63.2025 2.40964 64.7134 2.40964H72.9218L66.0953 34.7265H57.8881C56.3772 34.7265 55.4061 33.5217 55.7218 32.0337L61.4085 5.10241H61.4098ZM75.6567 2.40964H83.8652C85.376 2.40964 86.3459 3.61446 86.0314 5.10241L77.5001 45.5C77.1844 46.9867 75.7049 48.1928 74.1941 48.1928H65.9857L75.6567 2.40964ZM16.3905 23.9542H27.3338L25.6278 32.0337C25.3134 33.5217 23.8326 34.7265 22.323 34.7265H14.1146L16.3893 23.9554L16.3905 23.9542ZM54.5844 37.4205H65.5266L63.2519 48.1928H55.0447C53.5326 48.1928 52.5628 46.988 52.8772 45.5L54.5844 37.4205ZM84.2881 39.9253L82.9025 46.4867C82.8423 46.7687 82.7483 46.8458 82.4615 46.8458H81.8314C81.5447 46.8458 81.482 46.7687 81.5423 46.4867L82.9278 39.9253C82.9881 39.6446 83.082 39.5663 83.3688 39.5663H83.9989C84.2856 39.5663 84.3483 39.6446 84.2881 39.9253ZM86.1097 44.3518H85.9808C85.8435 44.3518 85.7953 44.3904 85.7676 44.5265L85.3531 46.4867C85.2929 46.7687 85.1977 46.8458 84.9122 46.8458H84.2808C83.9953 46.8458 83.9326 46.7687 83.9917 46.4867L85.3772 39.9253C85.4375 39.6446 85.5338 39.5663 85.8194 39.5663H87.1206C88.6194 39.5663 89.1869 40.1 88.9097 41.4096L88.6784 42.5072C88.4013 43.8181 87.6085 44.3518 86.1097 44.3518ZM86.4905 41.1L86.129 42.8181C86.0989 42.9542 86.1302 42.9928 86.2688 42.9928H86.476C86.9579 42.9928 87.217 42.7988 87.3218 42.3036L87.4664 41.6145C87.5712 41.1205 87.3953 40.9253 86.9121 40.9253H86.7049C86.5676 40.9253 86.5194 40.9639 86.4905 41.1ZM90.9941 42.1578L92.0182 43.2843C92.5555 43.8663 92.6302 44.2157 92.4929 44.8663L92.4567 45.041C92.1977 46.2639 91.5808 46.9434 90.1507 46.9434C88.7218 46.9434 88.3688 46.3711 88.6989 44.8072L88.7399 44.6145C88.8001 44.3325 88.8953 44.2542 89.1808 44.2542H89.8507C90.1375 44.2542 90.2001 44.3325 90.1399 44.6133L90.0495 45.041C89.9676 45.4289 90.0929 45.5843 90.4375 45.5843C90.7832 45.5843 90.9712 45.4398 91.0459 45.0904L91.0844 44.9048C91.1423 44.6325 91.111 44.4976 90.8146 44.1771L89.8507 43.1386C89.311 42.5663 89.2423 42.2349 89.3796 41.5843L89.4242 41.3723C89.6832 40.1494 90.3001 39.4687 91.729 39.4687C93.1591 39.4687 93.5122 40.0422 93.182 41.6048L93.1411 41.7988C93.0808 42.0807 92.9856 42.1578 92.7001 42.1578H92.029C91.7435 42.1578 91.6808 42.0807 91.7399 41.7988L91.8302 41.3723C91.9121 40.9831 91.7881 40.8289 91.4423 40.8289C91.0977 40.8289 90.9085 40.9735 90.835 41.3229L90.8001 41.488C90.7399 41.7699 90.7712 41.906 90.9941 42.1578ZM96.7676 39.9253C96.8278 39.6446 96.9218 39.5663 97.2085 39.5663H97.8387C98.1254 39.5663 98.1881 39.6446 98.1278 39.9253L97.0965 44.8084C96.7664 46.3711 96.1724 46.9434 94.7423 46.9434C93.3134 46.9434 92.9604 46.3711 93.2905 44.8072L94.3218 39.9253C94.382 39.6446 94.4772 39.5663 94.7627 39.5663H95.3941C95.6796 39.5663 95.7423 39.6446 95.6832 39.9253L94.6025 45.041C94.5206 45.4289 94.6555 45.5843 95.0302 45.5843C95.3941 45.5843 95.6049 45.4289 95.6869 45.041L96.7676 39.9253ZM100.871 43.8759C100.875 43.9542 100.9 43.9723 100.95 43.9723C100.998 43.9723 101.033 43.9542 101.069 43.8759L102.772 39.8193C102.856 39.6145 102.954 39.5663 103.201 39.5663H104.158C104.443 39.5663 104.506 39.6446 104.447 39.9253L103.062 46.4867C103.001 46.7687 102.905 46.8458 102.619 46.8458H102.166C101.881 46.8458 101.817 46.7687 101.877 46.4867L102.542 43.3422C102.56 43.2554 102.545 43.2349 102.486 43.2349C102.446 43.2349 102.401 43.2554 102.377 43.3229L101.001 46.5265C100.903 46.759 100.776 46.8458 100.49 46.8458H100.223C99.9266 46.8458 99.8375 46.759 99.8375 46.5265L99.8037 43.3217C99.7977 43.2542 99.782 43.2349 99.7326 43.2349C99.6736 43.2349 99.6495 43.2554 99.6314 43.3422L98.9676 46.4867C98.9073 46.7687 98.8134 46.8458 98.5266 46.8458H98.0736C97.7868 46.8458 97.7242 46.7687 97.7844 46.4867L99.17 39.9253C99.2302 39.6446 99.3254 39.5663 99.6109 39.5663H100.43C100.775 39.5663 100.886 39.6446 100.883 39.9843L100.87 43.8759H100.871ZM121.428 2.40964C121.428 3.74096 120.356 4.81928 119.034 4.81928C118.718 4.81833 118.406 4.75524 118.115 4.63362C117.824 4.51199 117.56 4.33422 117.338 4.11045C117.115 3.88667 116.939 3.62129 116.82 3.32946C116.7 3.03763 116.639 2.72507 116.64 2.40964C116.64 1.07831 117.712 0 119.034 0C120.356 0 121.428 1.07831 121.428 2.40964Z" fill="#E6E8E9"/>
</g>
<defs>
<clipPath id="clip0_168_2509">
<rect width="120.482" height="48.1928" fill="white" transform="translate(0.945801)"/>
</clipPath>
</defs>
</svg>
