<svg xmlns="http://www.w3.org/2000/svg" width="203" height="41" viewBox="0 0 203 41" fill="none">
  <g clip-path="url(#clip0_168_2539)">
    <path fill-rule="evenodd" clip-rule="evenodd" d="M25.6702 11.7815C24.0257 10.6827 22.0923 10.0962 20.1145 10.0962V0.0961914C24.0701 0.0961914 27.9369 1.26917 31.2259 3.4668C34.5149 5.66442 37.0783 8.788 38.5921 12.4425C40.1058 16.097 40.5019 20.1184 39.7302 23.998C38.9585 27.8776 37.0537 31.4413 34.2566 34.2383C31.4596 37.0354 27.8959 38.9402 24.0163 39.7119C20.1367 40.4836 16.1153 40.0875 12.4608 38.5738C8.8063 37.06 5.68273 34.4966 3.48511 31.2076C1.28748 27.9186 0.114502 24.0518 0.114502 20.0962H10.1145C10.1145 22.074 10.701 24.0074 11.7998 25.6519C12.8986 27.2964 14.4604 28.5781 16.2877 29.335C18.1149 30.0919 20.1256 30.2899 22.0654 29.904C24.0052 29.5182 25.787 28.5658 27.1856 27.1673C28.5841 25.7687 29.5365 23.9869 29.9223 22.0471C30.3082 20.1073 30.1102 18.0966 29.3533 16.2694C28.5964 14.4421 27.3147 12.8803 25.6702 11.7815Z" fill="#E6E8E9"/>
    <path fill-rule="evenodd" clip-rule="evenodd" d="M10.1145 0.0961967C10.1145 1.40942 9.85585 2.70977 9.3533 3.92304C8.85075 5.13629 8.11416 6.23868 7.18557 7.16727C6.25699 8.09586 5.1546 8.83245 3.94134 9.335C2.72808 9.83753 1.42772 10.0962 0.114502 10.0962L0.114502 20.0962C2.74094 20.0962 5.34166 19.5789 7.76818 18.5738C10.1947 17.5687 12.3995 16.0955 14.2566 14.2383C16.1138 12.3812 17.587 10.1764 18.5921 7.74987C19.5972 5.32335 20.1145 2.72263 20.1145 0.0961914L10.1145 0.0961967Z" fill="#E6E8E9"/>
    <path d="M125.733 14.5488H120.881V29.9611H125.733V14.5488Z" fill="#E6E8E9"/>
    <path d="M121.422 11.6628C121.929 12.1702 122.563 12.4239 123.324 12.4239C124.085 12.4239 124.709 12.1702 125.195 11.6628C125.682 11.1343 125.925 10.5 125.925 9.76004C125.925 8.99896 125.682 8.36468 125.195 7.8573C124.709 7.34988 124.085 7.09619 123.324 7.09619C122.563 7.09619 121.929 7.34988 121.422 7.8573C120.935 8.36468 120.692 8.99896 120.692 9.76004C120.692 10.5 120.935 11.1343 121.422 11.6628Z" fill="#E6E8E9"/>
    <path d="M51.2708 29.9609V7.57178H56.2497V25.5846H66.1758V29.9609H51.2708Z" fill="#E6E8E9"/>
    <path fill-rule="evenodd" clip-rule="evenodd" d="M75.1419 30.3097C73.5563 30.3097 72.1187 29.9609 70.829 29.2632C69.5605 28.5444 68.5563 27.5719 67.8163 26.3456C67.0764 25.1194 66.7064 23.7452 66.7064 22.223C66.7064 20.7008 67.0764 19.3372 67.8163 18.1321C68.5563 16.927 69.5605 15.9756 70.829 15.278C72.0975 14.5591 73.5352 14.1997 75.1419 14.1997C76.7487 14.1997 78.1863 14.5486 79.4548 15.2462C80.7233 15.9439 81.7276 16.9059 82.4675 18.1321C83.2075 19.3372 83.5775 20.7008 83.5775 22.223C83.5775 23.7452 83.2075 25.1194 82.4675 26.3456C81.7276 27.5719 80.7233 28.5444 79.4548 29.2632C78.1863 29.9609 76.7487 30.3097 75.1419 30.3097ZM75.1419 25.9017C75.8396 25.9017 76.4527 25.7537 76.9813 25.4577C77.5098 25.1406 77.9115 24.7072 78.1863 24.1575C78.4823 23.5867 78.6303 22.9418 78.6303 22.223C78.6303 21.5042 78.4823 20.8805 78.1863 20.352C77.8903 19.8023 77.4781 19.3795 76.9495 19.0835C76.4421 18.7663 75.8396 18.6078 75.1419 18.6078C74.4654 18.6078 73.8629 18.7663 73.3343 19.0835C72.8058 19.3795 72.3935 19.8023 72.0975 20.352C71.8015 20.9017 71.6536 21.5359 71.6536 22.2547C71.6536 22.9524 71.8015 23.5867 72.0975 24.1575C72.3935 24.7072 72.8058 25.1406 73.3343 25.4577C73.8629 25.7537 74.4654 25.9017 75.1419 25.9017Z" fill="#E6E8E9"/>
    <path fill-rule="evenodd" clip-rule="evenodd" d="M87.4202 35.9863C88.7098 36.5782 90.2003 36.8742 91.8917 36.8742C93.5407 36.8742 95.0101 36.5465 96.2997 35.8911C97.5894 35.2357 98.6041 34.3267 99.3441 33.1639C100.084 32.0011 100.455 30.6269 100.455 29.0412V14.5486H95.6971V15.5841C95.3433 15.2863 94.9415 15.0363 94.4921 14.834C93.6675 14.4323 92.7267 14.2314 91.6697 14.2314C90.2532 14.2314 88.9952 14.5697 87.8959 15.2462C86.7964 15.9016 85.9297 16.8107 85.2954 17.9735C84.6611 19.1152 84.3441 20.4048 84.3441 21.8425C84.3441 23.259 84.6611 24.5486 85.2954 25.7114C85.9297 26.8742 86.7964 27.7939 87.8959 28.4704C88.9952 29.1469 90.2532 29.4852 91.6697 29.4852C92.7056 29.4852 93.6464 29.2844 94.4921 28.8827C94.9017 28.6881 95.2717 28.4588 95.602 28.1947V29.1681C95.602 30.2463 95.2532 31.0814 94.5555 31.6734C93.879 32.2654 92.9382 32.5613 91.7331 32.5613C90.7606 32.5613 89.9255 32.3922 89.2278 32.0539C88.5513 31.7157 87.9381 31.2188 87.3884 30.5634L84.4075 33.5444C85.1474 34.6015 86.1517 35.4155 87.4202 35.9863ZM94.3335 24.7283C93.8472 25.0243 93.2659 25.1723 92.5893 25.1723C91.9128 25.1723 91.3208 25.0243 90.8134 24.7283C90.3271 24.4323 89.9466 24.0306 89.6718 23.5232C89.3969 22.9947 89.2595 22.4344 89.2595 21.8425C89.2595 21.2082 89.3969 20.6374 89.6718 20.13C89.9466 19.6226 90.3377 19.2209 90.8451 18.9249C91.3525 18.6289 91.9339 18.4809 92.5893 18.4809C93.2659 18.4809 93.8472 18.6289 94.3335 18.9249C94.8409 19.2209 95.2214 19.6226 95.4752 20.13C95.75 20.6374 95.8874 21.2082 95.8874 21.8425C95.8874 22.4767 95.75 23.0475 95.4752 23.5549C95.2214 24.0412 94.8409 24.4323 94.3335 24.7283Z" fill="#E6E8E9"/>
    <path fill-rule="evenodd" clip-rule="evenodd" d="M110.665 30.3097C109.079 30.3097 107.641 29.9609 106.352 29.2632C105.083 28.5444 104.079 27.5719 103.339 26.3456C102.599 25.1194 102.229 23.7452 102.229 22.223C102.229 20.7008 102.599 19.3372 103.339 18.1321C104.079 16.927 105.083 15.9756 106.352 15.278C107.62 14.5591 109.058 14.1997 110.665 14.1997C112.271 14.1997 113.709 14.5486 114.977 15.2462C116.246 15.9439 117.25 16.9059 117.99 18.1321C118.73 19.3372 119.1 20.7008 119.1 22.223C119.1 23.7452 118.73 25.1194 117.99 26.3456C117.25 27.5719 116.246 28.5444 114.977 29.2632C113.709 29.9609 112.271 30.3097 110.665 30.3097ZM110.665 25.9017C111.362 25.9017 111.975 25.7537 112.504 25.4577C113.032 25.1406 113.434 24.7072 113.709 24.1575C114.005 23.5867 114.153 22.9418 114.153 22.223C114.153 21.5042 114.005 20.8805 113.709 20.352C113.413 19.8023 113.001 19.3795 112.472 19.0835C111.965 18.7663 111.362 18.6078 110.665 18.6078C109.988 18.6078 109.385 18.7663 108.857 19.0835C108.328 19.3795 107.916 19.8023 107.62 20.352C107.324 20.9017 107.176 21.5359 107.176 22.2547C107.176 22.9524 107.324 23.5867 107.62 24.1575C107.916 24.7072 108.328 25.1406 108.857 25.4577C109.385 25.7537 109.988 25.9017 110.665 25.9017Z" fill="#E6E8E9"/>
    <path fill-rule="evenodd" clip-rule="evenodd" d="M137.395 30.278C136.36 30.278 135.408 30.0772 134.541 29.6755C134.085 29.4641 133.673 29.2117 133.305 28.9183V36.462H128.516V14.5486H133.368V15.6123C133.72 15.3244 134.111 15.0755 134.541 14.8657C135.408 14.4428 136.36 14.2314 137.395 14.2314C138.854 14.2314 140.144 14.5803 141.264 15.278C142.406 15.9756 143.294 16.927 143.928 18.1321C144.584 19.3372 144.911 20.7114 144.911 22.2547C144.911 23.7981 144.584 25.1723 143.928 26.3774C143.294 27.5825 142.406 28.5338 141.264 29.2315C140.144 29.9292 138.854 30.278 137.395 30.278ZM136.508 25.9017C137.205 25.9017 137.808 25.7431 138.315 25.426C138.844 25.1089 139.256 24.6754 139.552 24.1258C139.848 23.5761 139.996 22.9524 139.996 22.2547C139.996 21.5359 139.848 20.9017 139.552 20.352C139.256 19.8023 138.844 19.3795 138.315 19.0835C137.808 18.7663 137.216 18.6078 136.539 18.6078C135.863 18.6078 135.26 18.7663 134.732 19.0835C134.224 19.3795 133.823 19.8023 133.527 20.352C133.231 20.9017 133.083 21.5359 133.083 22.2547C133.083 22.9524 133.22 23.5761 133.495 24.1258C133.791 24.6754 134.203 25.1089 134.732 25.426C135.26 25.7431 135.852 25.9017 136.508 25.9017Z" fill="#E6E8E9"/>
    <path d="M149.661 29.9925C150.549 30.2251 151.447 30.3413 152.356 30.3413C154.28 30.3413 155.802 29.8974 156.923 29.0094C158.064 28.1215 158.635 26.927 158.635 25.4259C158.635 24.4534 158.456 23.6711 158.096 23.0792C157.737 22.4661 157.272 21.9798 156.701 21.6204C156.13 21.261 155.527 20.9755 154.893 20.7641C154.259 20.5527 153.656 20.373 153.086 20.225C152.515 20.077 152.05 19.9079 151.69 19.7176C151.331 19.5273 151.151 19.2736 151.151 18.9565C151.151 18.6605 151.289 18.4385 151.563 18.2905C151.838 18.1214 152.25 18.0369 152.8 18.0369C153.371 18.0369 153.952 18.1531 154.544 18.3857C155.157 18.6182 155.707 19.02 156.193 19.5908L158.952 16.8001C158.255 15.9121 157.346 15.2461 156.225 14.8022C155.126 14.3371 153.921 14.1045 152.61 14.1045C151.363 14.1045 150.274 14.3159 149.344 14.7387C148.413 15.1616 147.694 15.743 147.187 16.4829C146.68 17.2017 146.426 18.058 146.426 19.0517C146.426 19.9819 146.606 20.7536 146.965 21.3667C147.324 21.9586 147.79 22.4238 148.36 22.762C148.931 23.1003 149.534 23.3646 150.168 23.5548C150.802 23.7451 151.405 23.9248 151.976 24.094C152.546 24.242 153.012 24.4217 153.371 24.6331C153.752 24.8234 153.942 25.1088 153.942 25.4893C153.942 25.7853 153.783 26.0178 153.466 26.187C153.17 26.3561 152.737 26.4407 152.166 26.4407C151.341 26.4407 150.58 26.2927 149.883 25.9967C149.185 25.6796 148.582 25.2462 148.075 24.6965L145.316 27.4872C145.845 28.058 146.479 28.5655 147.219 29.0094C147.98 29.4322 148.794 29.7599 149.661 29.9925Z" fill="#E6E8E9"/>
    <path d="M167.482 30.3099C166.066 30.3099 164.808 30.0245 163.709 29.4537C162.63 28.8617 161.785 28.0583 161.172 27.0435C160.558 26.0076 160.252 24.8237 160.252 23.4917V14.5488H165.104V23.4283C165.104 23.9568 165.188 24.4114 165.358 24.7919C165.548 25.1725 165.823 25.4685 166.182 25.6799C166.542 25.8913 166.975 25.997 167.482 25.997C168.201 25.997 168.772 25.775 169.195 25.331C169.618 24.8659 169.829 24.2317 169.829 23.4283V14.5488H174.681V23.46C174.681 24.8131 174.375 26.0076 173.761 27.0435C173.148 28.0583 172.303 28.8617 171.224 29.4537C170.146 30.0245 168.899 30.3099 167.482 30.3099Z" fill="#E6E8E9"/>
    <path d="M181.945 14.5486H177.094V29.9609H181.945V20.9545C181.945 20.426 182.051 19.982 182.262 19.6226C182.495 19.2632 182.802 18.9883 183.182 18.7981C183.563 18.5866 183.996 18.4809 184.482 18.4809C185.18 18.4809 185.762 18.7029 186.227 19.1469C186.714 19.5697 186.956 20.1723 186.956 20.9545V29.9609H191.809V20.9545C191.809 20.426 191.915 19.982 192.126 19.6226C192.359 19.2632 192.665 18.9883 193.046 18.7981C193.426 18.5866 193.86 18.4809 194.346 18.4809C195.044 18.4809 195.625 18.7029 196.09 19.1469C196.576 19.5697 196.818 20.1723 196.818 20.9545V29.9609H201.672V20.4154C201.672 19.1258 201.396 18.0264 200.846 17.1173C200.317 16.187 199.589 15.4788 198.659 14.9926C197.75 14.4851 196.703 14.2314 195.519 14.2314C194.314 14.2314 193.225 14.4957 192.253 15.0243C191.621 15.361 191.069 15.7956 190.596 16.328C190.155 15.7711 189.619 15.3154 188.986 14.9608C188.141 14.4746 187.178 14.2314 186.1 14.2314C184.958 14.2314 183.934 14.4746 183.025 14.9608C182.629 15.1631 182.269 15.4054 181.945 15.6877V14.5486Z" fill="#E6E8E9"/>
  </g>
  <defs>
    <clipPath id="clip0_168_2539">
      <rect width="202" height="40" fill="white" transform="translate(0.114502 0.0961914)"/>
    </clipPath>
  </defs>
</svg>
