<svg width="32" height="33" viewBox="0 0 32 33" fill="none" xmlns="http://www.w3.org/2000/svg">
<path fill-rule="evenodd" clip-rule="evenodd" d="M21.7031 13.9287L18.8627 22.4538C18.6921 22.9643 18.9682 23.5178 19.48 23.6884C19.9918 23.859 20.5453 23.5829 20.7159 23.0711L23.5563 14.546C23.7269 14.0355 23.4508 13.482 22.939 13.3114C22.4272 13.1408 21.8737 13.4169 21.7031 13.9287Z" fill="currentColor"/>
<path fill-rule="evenodd" clip-rule="evenodd" d="M24.1892 16.3498L26.3393 18.5L24.1892 20.6501C23.8076 21.0317 23.8076 21.6503 24.1892 22.0319C24.5708 22.4135 25.1894 22.4135 25.571 22.0319L28.4113 19.1902C28.7929 18.8086 28.7929 18.1913 28.4113 17.8097L25.571 14.9681C25.1894 14.5865 24.5708 14.5865 24.1892 14.9681C23.8076 15.3497 23.8076 15.9683 24.1892 16.3498Z" fill="currentColor"/>
<path fill-rule="evenodd" clip-rule="evenodd" d="M16.848 14.9681L14.0076 17.8097C13.626 18.1913 13.626 18.8086 14.0076 19.1902L16.848 22.0319C17.2296 22.4135 17.8482 22.4135 18.2298 22.0319C18.6113 21.6503 18.6113 21.0317 18.2298 20.6501L16.0796 18.5L18.2298 16.3498C18.6113 15.9683 18.6113 15.3497 18.2298 14.9681C17.8482 14.5865 17.2296 14.5865 16.848 14.9681Z" fill="currentColor"/>
<path fill-rule="evenodd" clip-rule="evenodd" d="M22.1862 22.7768L21.9505 23.4827C21.5533 24.6756 20.2614 25.3216 19.0684 24.9244C18.4095 24.7043 17.9172 24.2133 17.6763 23.6155C17.0485 23.6533 16.4078 23.4319 15.9272 22.9527L13.0869 20.111C12.1961 19.2215 12.1961 17.7785 13.0869 16.889L15.9272 14.0473C16.8167 13.1579 18.261 13.1579 19.1505 14.0473C19.5516 14.4485 19.7717 14.9616 19.8121 15.4864L20.4684 13.5173C20.7367 12.7125 21.41 12.1577 22.1862 12.0027V8.0814C22.1862 7.132 21.8085 6.22037 21.1378 5.54837C20.4658 4.87767 19.5542 4.5 18.6048 4.5C15.4219 4.5 10.0668 4.5 6.88389 4.5C5.93449 4.5 5.02286 4.87767 4.35086 5.54837C3.68016 6.22037 3.30249 7.132 3.30249 8.0814V28.9186C3.30249 29.868 3.68016 30.7796 4.35086 31.4516C5.02286 32.1223 5.93449 32.5 6.88389 32.5H18.6048C19.5542 32.5 20.4658 32.1223 21.1378 31.4516C21.8085 30.7796 22.1862 29.868 22.1862 28.9186V22.7768ZM10.1397 29.2442H15.349C15.8882 29.2442 16.3257 28.8066 16.3257 28.2674C16.3257 27.7283 15.8882 27.2907 15.349 27.2907H10.1397C9.60054 27.2907 9.16295 27.7283 9.16295 28.2674C9.16295 28.8066 9.60054 29.2442 10.1397 29.2442ZM17.9537 6.45349H7.53505L8.3464 8.48121C8.64333 9.22354 9.36091 9.7093 10.1605 9.7093H15.3282C16.1278 9.7093 16.8454 9.22354 17.1423 8.48121L17.9537 6.45349Z" fill="currentColor"/>
</svg>
