<svg width="32" height="33" viewBox="0 0 32 33" fill="none" xmlns="http://www.w3.org/2000/svg">
<path d="M28.6 5.7666H30V6.69993H28.6V5.7666Z" fill="currentColor"/>
<path d="M28.6 26.3H30V27.2334H28.6V26.3Z" fill="currentColor"/>
<path d="M26.2667 28.6333H27.2V30.5H26.2667V28.6333Z" fill="currentColor"/>
<path d="M4.8 28.6333H5.73334V30.5H4.8V28.6333Z" fill="currentColor"/>
<path d="M9.46667 13.7H9V14.6333H9.46667C9.7238 14.6333 9.93333 14.4242 9.93333 14.1666C9.93333 13.909 9.7238 13.7 9.46667 13.7Z" fill="currentColor"/>
<path d="M12.7333 13.7H12.2667V14.6333H12.7333C12.9905 14.6333 13.2 14.4242 13.2 14.1666C13.2 13.909 12.9905 13.7 12.7333 13.7Z" fill="currentColor"/>
<path d="M9.46667 15.5667H9V16.5H9.46667C9.7238 16.5 9.93333 16.2909 9.93333 16.0333C9.93333 15.7757 9.7238 15.5667 9.46667 15.5667Z" fill="currentColor"/>
<path d="M16 13.7C15.7429 13.7 15.5333 13.909 15.5333 14.1666V15.1H16.4667V14.1666C16.4667 13.909 16.2571 13.7 16 13.7Z" fill="currentColor"/>
<path d="M4.33334 25.8333H6.2V27.6999H4.33334V25.8333Z" fill="currentColor"/>
<path d="M15.3401 22.5667C15.4769 22.5667 15.6089 22.5397 15.7331 22.493L13.4114 20.1713L14.0689 24.4465C15.2641 24.5253 16.4069 24.9556 17.3594 25.6808L19.5807 23.4595C18.8555 22.507 18.4253 21.3646 18.3464 20.1695L14.0708 19.5115L16.3929 21.8336C16.4391 21.709 16.4667 21.5774 16.4667 21.4407V21.1672H17.4V21.4407C17.4 21.9909 17.1858 22.5079 16.7971 22.8971C16.4083 23.2863 15.8908 23.5005 15.3401 23.5005H15.0667V22.5672L15.3401 22.5667Z" fill="currentColor"/>
<path d="M17.5888 26.7659L20.6618 23.6929L22.3349 25.366L19.2619 28.439L17.5888 26.7659Z" fill="currentColor"/>
<path d="M4.33334 5.30005H6.2V7.16672H4.33334V5.30005Z" fill="currentColor"/>
<path d="M26.2667 8.09995H25.3333C25.0757 8.09995 24.8667 7.89135 24.8667 7.63328V6.69995H7.13333V7.63328C7.13333 7.89135 6.92426 8.09995 6.66666 8.09995H5.73333V24.9H6.66666C6.92426 24.9 7.13333 25.1086 7.13333 25.3666V26.3H16.6221C15.7587 25.697 14.7302 25.3666 13.6667 25.3666C13.4361 25.3666 13.2406 25.1986 13.2056 24.9709L12.2723 18.9042C12.2499 18.7572 12.2984 18.6084 12.4034 18.5034C12.5089 18.3979 12.6587 18.3503 12.8043 18.3722L18.8709 19.3056C19.0987 19.3406 19.2667 19.5366 19.2667 19.7666C19.2667 20.8586 19.6125 21.9156 20.2471 22.793L20.3367 22.7034C20.5192 22.5209 20.8141 22.5209 20.9966 22.7034L23.3299 25.0367C23.5124 25.2192 23.5124 25.5141 23.3299 25.6966L22.7265 26.3H24.8667V25.3666C24.8667 25.1086 25.0757 24.9 25.3333 24.9H26.2667V8.09995ZM10.8667 16.0333C10.8667 16.8052 10.2385 17.4333 9.46666 17.4333H8.53333C8.27573 17.4333 8.06666 17.2247 8.06666 16.9666V13.2333C8.06666 12.9752 8.27573 12.7666 8.53333 12.7666H9.46666C10.2385 12.7666 10.8667 13.3948 10.8667 14.1666C10.8667 14.525 10.7313 14.8522 10.5092 15.1C10.7313 15.3478 10.8667 15.6749 10.8667 16.0333ZM14.1333 17.353V17.4333H13.2V17.353C13.2 16.6885 12.9606 16.0618 12.5275 15.5666H12.2667V17.4333H11.3333V13.2333C11.3333 12.9752 11.5424 12.7666 11.8 12.7666H12.7333C13.5052 12.7666 14.1333 13.3948 14.1333 14.1666C14.1333 14.6473 13.8897 15.072 13.5192 15.324C13.9187 15.9194 14.1333 16.6194 14.1333 17.353ZM17.4 17.4333H16.4667V16.0333H15.5333V17.4333H14.6V14.1666C14.6 13.3948 15.2281 12.7666 16 12.7666C16.7719 12.7666 17.4 13.3948 17.4 14.1666V17.4333ZM20.6667 16.9666C20.6667 17.1832 20.5178 17.3708 20.3073 17.4212C20.2714 17.4296 20.2355 17.4333 20.2 17.4333C20.0259 17.4333 19.8631 17.3362 19.7823 17.1752L18.8 15.2101V17.4333H17.8667V13.2333C17.8667 13.0168 18.0155 12.8292 18.226 12.7788C18.4393 12.7302 18.6539 12.8306 18.751 13.0242L19.7333 14.9894V12.7662H20.6667V16.9666ZM23.9333 16.0333C23.9333 16.8052 23.3052 17.4333 22.5333 17.4333H21.6C21.3424 17.4333 21.1333 17.2247 21.1333 16.9666V13.2333C21.1333 12.9752 21.3424 12.7666 21.6 12.7666H22.5333C23.3052 12.7666 23.9333 13.3948 23.9333 14.1666V16.0333Z" fill="currentColor"/>
<path d="M25.8 25.8333H27.6667V27.6999H25.8V25.8333Z" fill="currentColor"/>
<path d="M22.5333 13.7H22.0667V16.5H22.5333C22.7905 16.5 23 16.2909 23 16.0333V14.1666C23 13.909 22.7905 13.7 22.5333 13.7Z" fill="currentColor"/>
<path d="M25.8 5.30005H27.6667V7.16672H25.8V5.30005Z" fill="currentColor"/>
<path d="M4.8 2.5H5.73334V4.36667H4.8V2.5Z" fill="currentColor"/>
<path d="M2 5.7666H3.4V6.69993H2V5.7666Z" fill="currentColor"/>
<path d="M26.2667 2.5H27.2V4.36667H26.2667V2.5Z" fill="currentColor"/>
<path d="M2 26.3H3.4V27.2334H2V26.3Z" fill="currentColor"/>
</svg>
