<svg xmlns="http://www.w3.org/2000/svg" width="43" height="43" viewBox="0 0 43 43" fill="none">
<path d="M21.095 1.31843C17.6095 1.3142 14.185 2.23234 11.169 3.97963C8.1531 5.72693 5.65322 8.24114 3.92321 11.267C2.1932 14.2929 1.29466 17.7227 1.31883 21.2081C1.343 24.6935 2.28902 28.1105 4.06083 31.1121L1.38611 39.136C1.31315 39.3552 1.299 39.5897 1.34509 39.8161C1.39118 40.0425 1.49589 40.2528 1.64874 40.4261C1.80296 40.5973 1.99874 40.726 2.21718 40.7995C2.43561 40.873 2.66932 40.889 2.89572 40.8458L12.5484 38.9158C15.2123 40.2067 18.1348 40.8755 21.095 40.8716C26.3401 40.8716 31.3704 38.788 35.0792 35.0791C38.788 31.3703 40.8716 26.3401 40.8716 21.095C40.8716 15.8499 38.788 10.8197 35.0792 7.11086C31.3704 3.40203 26.3401 1.31844 21.095 1.31843ZM21.095 38.2347C18.3941 38.2373 15.7317 37.5945 13.3294 36.36C13.064 36.2293 12.7634 36.1877 12.4725 36.2413L4.60626 37.8149L6.75637 31.3644C6.81809 31.1788 6.83781 30.9818 6.8141 30.7876C6.79039 30.5935 6.72383 30.407 6.61925 30.2417C4.59299 27.0277 3.69289 23.2312 4.06062 19.4497C4.42835 15.6682 6.04302 12.1162 8.65054 9.3529C11.2581 6.58955 14.7104 4.77166 18.4642 4.1853C22.2181 3.59894 26.0604 4.2774 29.3864 6.11392C32.7124 7.95043 35.3334 10.8407 36.8368 14.33C38.3403 17.8193 38.6408 21.7094 37.6912 25.3882C36.7416 29.0669 34.5957 32.3256 31.5913 34.6512C28.5869 36.9768 24.8944 38.2374 21.095 38.2347Z" fill="currentColor"/>
<path d="M29.8604 24.0242L26.6777 22.9619C26.2191 22.808 25.7265 22.7855 25.2557 22.897C24.7849 23.0085 24.3548 23.2495 24.0138 23.5928L21.2882 26.3179C19.0968 24.9454 17.2428 23.0968 15.8638 20.9095L18.5972 18.1761C18.9409 17.8351 19.1821 17.4045 19.2934 16.9333C19.4047 16.4621 19.3816 15.9691 19.2267 15.5104L18.1664 12.3288C18.0386 11.9614 17.8309 11.6269 17.5583 11.3493C17.2857 11.0718 16.955 10.858 16.59 10.7235C16.225 10.589 15.8347 10.5371 15.4472 10.5714C15.0597 10.6058 14.6846 10.7256 14.3489 10.9222C14.3489 10.9222 11.1868 12.8297 11.1716 12.843C10.963 12.9946 10.7975 13.198 10.6914 13.433C10.5853 13.6681 10.5423 13.9267 10.5667 14.1835C11.0059 16.9913 12.0094 19.6811 13.5168 22.0903C15.0242 24.4996 17.0042 26.5784 19.3372 28.2014C21.9124 29.9212 24.8222 31.077 27.8755 31.5931C28.1533 31.6567 28.4438 31.6345 28.7087 31.5295C28.9736 31.4245 29.2004 31.2415 29.359 31.0048L31.2677 27.8405C31.463 27.5046 31.5817 27.1297 31.6153 26.7426C31.6489 26.3555 31.5967 25.9657 31.4622 25.6012C31.3278 25.2366 31.1145 24.9062 30.8376 24.6336C30.5607 24.361 30.2271 24.1529 29.8604 24.0242ZM15.6654 13.1631L16.7333 16.3118L14.565 18.4801C14.0326 17.2282 13.6249 15.9268 13.3479 14.5948L15.6654 13.1631ZM25.8459 25.4642L29.0094 26.4787L27.5893 28.8334C26.2621 28.5547 24.9665 28.1426 23.7222 27.6033L25.8459 25.4642Z" fill="currentColor"/>
</svg>
