<svg width="28" height="28" viewBox="0 0 28 28" fill="none" xmlns="http://www.w3.org/2000/svg">
<path d="M10.5049 12.6714C10.7084 16.3714 15.8505 17.215 17.2385 13.7888C18.19 11.5646 16.4253 8.93036 13.9953 8.98127C12.0036 8.97407 10.3766 10.6797 10.5049 12.6714Z" fill="#9DE500"/>
<path d="M19.8444 18.9295C18.82 17.4934 16.9633 16.8352 15.2175 16.9371C15.2175 16.937 12.7732 16.937 12.7732 16.937C10.6794 16.7965 8.46489 17.824 7.6422 19.8093C7.31894 20.6975 8.17945 21.5066 9.6251 22.382C12.3208 23.8982 15.6724 23.8992 18.3655 22.3819C19.6447 21.6639 20.1393 20.9791 20.3152 20.6319C20.6401 20.0295 20.1649 19.4166 19.8444 18.9295Z" fill="#9DE500"/>
<path d="M20.8764 11.4493C22.8071 11.4493 24.3763 9.88 24.3763 7.94932C24.2116 3.3261 17.5464 3.32237 17.3812 7.94938C17.3812 9.88 18.9505 11.4493 20.8764 11.4493Z" fill="#9DE500"/>
<path d="M27.2343 15.2821C26.4649 13.4659 24.5473 12.3914 22.5502 12.4099C22.5502 12.4099 19.2072 12.4099 19.2072 12.4099C18.9643 12.4285 18.6386 12.3876 18.4463 12.4812C18.4545 13.8854 17.7506 15.2519 16.6393 16.0572C18.4642 16.3071 20.1399 17.3759 21.0048 18.9866C22.4742 18.9675 23.9388 18.5919 25.2465 17.8548C26.7014 16.9766 27.5501 16.1737 27.2343 15.2821Z" fill="#9DE500"/>
<path d="M7.11435 11.4493C9.04027 11.4493 10.6095 9.88 10.6095 7.94932C10.4436 3.32118 3.77842 3.32729 3.61436 7.94938C3.61436 9.88 5.18364 11.4493 7.11435 11.4493Z" fill="#9DE500"/>
<path d="M9.04026 16.8656C9.73453 16.4472 10.5144 16.1761 11.3514 16.0572C10.2335 15.2475 9.52861 13.8691 9.54434 12.4574C9.05384 12.368 5.99761 12.4246 5.44043 12.4098C4.41803 12.4099 3.4527 12.6666 2.64428 13.1517C1.78725 13.6751 0.323283 15.0519 0.789591 16.1048C0.970381 16.4519 1.4602 17.1367 2.74416 17.8548C4.05188 18.5918 5.51652 18.9675 6.98594 18.9865C7.46422 18.0987 8.16095 17.3993 9.04026 16.8656Z" fill="#9DE500"/>
</svg>
