<svg width="32" height="33" viewBox="0 0 32 33" fill="none" xmlns="http://www.w3.org/2000/svg">
<path d="M17.2727 2.50062H14.7273C14.3759 2.50062 14.091 2.7855 14.091 3.13693V3.77323H7.61289C7.26147 2.77927 6.17069 2.25826 5.17673 2.60968C4.18277 2.9611 3.66176 4.05188 4.01318 5.04584C4.36461 6.0398 5.45538 6.56081 6.44934 6.20939C6.99306 6.01709 7.4206 5.58955 7.61289 5.04584H10.12C6.05385 7.59127 5.18208 13.1529 5.18208 13.2292C5.13 13.5768 5.36947 13.9007 5.71689 13.953C5.7209 13.9536 5.72513 13.9541 5.72935 13.9547H5.81838C6.13775 13.9579 6.40995 13.7237 6.45468 13.4075C6.45468 13.3184 7.64472 5.55483 14.091 5.04584V5.68214C14.091 6.03356 14.3759 6.31844 14.7273 6.31844H17.2727C17.6241 6.31844 17.909 6.03356 17.909 5.68214V5.04584C23.7953 5.57397 25.5453 13.3184 25.5453 13.4202C25.5958 13.7313 25.8665 13.9588 26.1816 13.9547H26.3152C26.6606 13.8902 26.8883 13.5577 26.8237 13.2123C26.8219 13.2032 26.8202 13.194 26.8179 13.1849C26.8179 13.1148 25.5453 7.59149 21.6127 5.04606H24.3871C24.7385 6.04002 25.8293 6.56103 26.8233 6.20961C27.8172 5.85819 28.3383 4.76741 27.9868 3.77345C27.6354 2.77949 26.5446 2.25848 25.5507 2.6099C25.007 2.8022 24.5794 3.22974 24.3871 3.77345H17.909V3.13715C17.909 2.7855 17.6241 2.50062 17.2727 2.50062Z" fill="currentColor"/>
<path d="M16.0001 20.3185C16.3516 20.3185 16.6364 20.0336 16.6364 19.6822C16.6364 19.3308 16.3516 19.0459 16.0001 19.0459C15.6487 19.0459 15.3638 19.3308 15.3638 19.6822C15.3638 20.0336 15.6487 20.3185 16.0001 20.3185Z" fill="currentColor"/>
<path d="M10.4575 20.1339C11.6693 21.4194 12.477 23.0323 12.7801 24.7729H19.2199C19.523 23.0325 20.3307 21.4194 21.5426 20.1339C21.7257 19.9498 21.7787 19.6727 21.6761 19.4339L16.6364 7.46411V17.8876C17.6304 18.239 18.1514 19.3297 17.8 20.3237C17.4485 21.3177 16.3578 21.8387 15.3638 21.4873C14.3699 21.1358 13.8488 20.0451 14.2003 19.0511C14.3926 18.5074 14.8201 18.0798 15.3638 17.8876V7.46411L10.3239 19.4339C10.2213 19.6727 10.2743 19.9498 10.4575 20.1339Z" fill="currentColor"/>
<path d="M11.5455 29.8637C11.5455 30.2151 11.8304 30.5 12.1818 30.5H19.8181C20.1696 30.5 20.4544 30.2151 20.4544 29.8637V26.0457H11.5455V29.8637Z" fill="currentColor"/>
</svg>
