<svg xmlns="http://www.w3.org/2000/svg" width="44" height="44" viewBox="0 0 44 44" fill="none">
<g clip-path="url(#clip0_114_505)">
<path d="M21.999 0.90625C13.0348 0.90625 5.74219 8.19986 5.74219 17.165C5.74219 23.5709 8.42412 30.0508 13.4981 35.9041C17.2878 40.276 21.0435 42.7529 21.2017 42.8563C21.4438 43.0147 21.7215 43.0938 21.9992 43.0938C22.2766 43.0938 22.5543 43.0147 22.7966 42.8563C22.9546 42.7529 26.7109 40.276 30.5006 35.9043C35.575 30.0508 38.2571 23.5709 38.2571 17.165C38.2569 8.19986 30.9635 0.90625 21.999 0.90625ZM21.999 39.8469C19.009 37.6189 8.65691 29.0442 8.65691 17.165C8.65691 9.80703 14.642 3.82097 21.999 3.82097C29.3565 3.82097 35.3422 9.80703 35.3422 17.165C35.3422 29.0442 24.9891 37.6189 21.999 39.8469Z" fill="currentColor"/>
<path d="M21.9998 10.7092C18.4419 10.7092 15.5474 13.6039 15.5474 17.1622C15.5474 20.7196 18.4419 23.6137 21.9998 23.6137C25.5577 23.6137 28.452 20.7196 28.452 17.1622C28.452 13.6041 25.5575 10.7092 21.9998 10.7092ZM21.9998 20.699C20.0491 20.699 18.4621 19.1124 18.4621 17.1622C18.4621 15.2111 20.0491 13.624 21.9998 13.624C23.9503 13.624 25.5373 15.2111 25.5373 17.1622C25.5373 19.1124 23.9503 20.699 21.9998 20.699Z" fill="currentColor"/>
</g>
<defs>
<clipPath id="clip0_114_505">
<rect width="42.1875" height="42.1875" fill="white" transform="translate(0.90625 0.90625)"/>
</clipPath>
</defs>
</svg>
