<svg width="44" height="44" viewBox="0 0 44 44" fill="none" xmlns="http://www.w3.org/2000/svg">
<g clip-path="url(#clip0_114_457)">
<path d="M35.6632 13.227L22.0016 25.2656L8.33703 13.2269C7.79293 12.7475 6.96357 12.8002 6.4844 13.3439C6.0054 13.8879 6.05755 14.7172 6.60165 15.1966L21.1341 28C21.3821 28.2184 21.692 28.3276 22.0018 28.3276C22.3116 28.3276 22.6217 28.2184 22.8697 27.9998L37.3991 15.1964C37.9429 14.7172 37.9952 13.8877 37.516 13.3438C37.0365 12.8004 36.2073 12.7479 35.6632 13.227Z" fill="currentColor"/>
<path d="M39.1561 7.64914H4.84392C2.67278 7.64914 0.90625 9.41549 0.90625 11.5868V32.4131C0.90625 34.5844 2.67278 36.3507 4.84392 36.3507H39.1561C41.3272 36.3507 43.0938 34.5844 43.0938 32.4131V11.5868C43.0938 9.41567 41.3272 7.64914 39.1561 7.64914ZM40.4686 32.4131C40.4686 33.1367 39.8799 33.7256 39.1561 33.7256H4.84392C4.12009 33.7256 3.53136 33.1367 3.53136 32.4131V11.5868C3.53136 10.8632 4.12009 10.2743 4.84392 10.2743H39.1561C39.8799 10.2743 40.4686 10.8632 40.4686 11.5868V32.4131Z" fill="currentColor"/>
</g>
<defs>
<clipPath id="clip0_114_457">
<rect width="42.1875" height="42.1875" fill="white" transform="translate(0.90625 0.90625)"/>
</clipPath>
</defs>
</svg>
