<svg width="28" height="30" viewBox="0 0 28 30" fill="none" xmlns="http://www.w3.org/2000/svg">
<path d="M15.0366 10.6601L14 8.5596L12.9634 10.6601C12.8568 10.8761 12.6506 11.026 12.4121 11.0606L10.0941 11.3974L11.7714 13.0324C11.9439 13.2007 12.0227 13.443 11.982 13.6806L11.586 15.9892L13.6593 14.8992C13.7659 14.8431 13.883 14.8151 14 14.8151C14.117 14.8151 14.2341 14.8432 14.3407 14.8992L16.414 15.9892L16.018 13.6806C15.9773 13.443 16.0561 13.2007 16.2286 13.0324L17.906 11.3974L15.588 11.0606C15.3495 11.026 15.1433 10.8761 15.0366 10.6601Z" fill="#9DE500"/>
<path d="M24.5368 12.9239C24.474 12.7309 24.474 12.5269 24.5368 12.3339L25.1302 10.5077C25.4551 9.50787 25.1019 8.42091 24.2514 7.8029L22.6979 6.67421C22.5337 6.55492 22.4138 6.38987 22.3511 6.19685L21.7577 4.37062C21.4327 3.37081 20.5081 2.69905 19.4568 2.69905H17.5366C17.3336 2.69905 17.1396 2.636 16.9754 2.51671L15.4219 1.38803C14.5714 0.770154 13.4285 0.770154 12.578 1.38803L11.0245 2.51671C10.8603 2.636 10.6663 2.69905 10.4634 2.69905H8.54314C7.49192 2.69905 6.56724 3.37081 6.24227 4.3707L5.64885 6.197C5.58617 6.38995 5.46623 6.555 5.30206 6.67428L3.74859 7.80297C2.89816 8.42091 2.54492 9.50787 2.86982 10.5077L3.46323 12.334C3.52599 12.5269 3.52599 12.7309 3.46323 12.924L2.86982 14.7503C2.54492 15.7501 2.89816 16.837 3.74866 17.455L5.3022 18.5838C5.46637 18.703 5.58624 18.8681 5.64892 19.0612L6.24234 20.8874C6.56731 21.8872 7.49192 22.559 8.54321 22.559H10.4635C10.6664 22.559 10.8604 22.622 11.0246 22.7413L12.5781 23.8699C13.0035 24.1789 13.5016 24.3334 14.0001 24.3334C14.4984 24.3334 14.9968 24.1789 15.422 23.87L16.9756 22.7413C17.1397 22.622 17.3338 22.559 17.5367 22.559H19.4569C20.5082 22.559 21.4329 21.8872 21.7578 20.8873L22.3512 19.061C22.4139 18.8681 22.5338 18.703 22.698 18.5837L24.2515 17.455C25.102 16.837 25.4552 15.7501 25.1303 14.7502L24.5368 12.9239ZM19.9908 11.4105L17.5267 13.8124L18.1084 17.204C18.1555 17.4786 18.0425 17.7563 17.817 17.9202C17.6894 18.0129 17.5383 18.06 17.3865 18.06C17.2699 18.06 17.153 18.0323 17.0459 17.976L14 16.3746L10.9541 17.9759C10.7075 18.1055 10.4085 18.084 10.183 17.9202C9.95755 17.7564 9.84457 17.4787 9.89165 17.204L10.4733 13.8124L8.00926 11.4105C7.80965 11.216 7.73788 10.925 7.824 10.6599C7.91018 10.3948 8.1393 10.2017 8.41507 10.1615L11.8205 9.66669L13.3433 6.58092C13.4667 6.331 13.7212 6.17276 14 6.17276C14.2788 6.17276 14.5333 6.331 14.6567 6.58092L16.1795 9.66669L19.5849 10.1615C19.8608 10.2016 20.0899 10.3948 20.176 10.6599C20.2621 10.925 20.1903 11.216 19.9908 11.4105Z" fill="#9DE500"/>
<path d="M27.7853 22.4903L24.3262 19.0304L23.5683 19.5803L23.0111 21.2945C22.5095 22.8396 21.0808 23.8772 19.4567 23.8772H17.6546L16.9451 24.3919L21.4147 28.8608C21.5531 28.9992 21.7406 29.0754 21.9324 29.0754C21.9822 29.0754 22.0328 29.0703 22.0826 29.0593C22.3242 29.0088 22.5241 28.8396 22.6142 28.6097L23.9981 25.0729L27.5342 23.6897C27.7648 23.5996 27.934 23.3997 27.9845 23.1574C28.035 22.9157 27.9603 22.6645 27.7853 22.4903Z" fill="#9DE500"/>
<path d="M10.3453 23.8772H8.54328C6.91915 23.8772 5.49053 22.8396 4.98894 21.2945L4.4317 19.5803L3.67382 19.0304L0.214673 22.4903C0.0396657 22.6645 -0.0350238 22.9157 0.0155014 23.1574C0.0660266 23.3997 0.235176 23.5996 0.465835 23.6897L4.00187 25.0729L5.38582 28.6097C5.47588 28.8396 5.67579 29.0088 5.91743 29.0593C5.96722 29.0703 6.01775 29.0754 6.06754 29.0754C6.25939 29.0754 6.44685 28.9992 6.58524 28.8608L11.0549 24.3919L10.3453 23.8772Z" fill="#9DE500"/>
</svg>
