<svg width="28" height="30" viewBox="0 0 28 30" fill="none" xmlns="http://www.w3.org/2000/svg">
<path d="M12.4898 22.56L9.65969 25.3799C8.48973 26.5499 6.57953 26.5499 5.40958 25.3799L2.57943 22.5498C1.41924 21.3901 1.41924 19.4799 2.57943 18.3099L5.40958 15.4797L12.4898 22.56ZM25.9199 14.7698L13.1896 2.04923C12.9698 1.81924 12.6495 1.70938 12.3394 1.75918C12.0196 1.80948 11.7496 1.99943 11.5997 2.27922L5.86955 13.1096L14.8795 22.1201L25.6796 16.3597C25.9599 16.22 26.1503 15.9397 26.2001 15.6297C26.25 15.3098 26.1396 14.9998 25.9199 14.7698ZM3.99939 26.7901L1.16924 23.9599C0.769323 23.56 0.459257 23.1201 0.22927 22.6401C-0.270742 24.04 0.04909 25.67 1.16924 26.7901C1.92951 27.5499 2.92953 27.9703 3.99939 27.9703C4.45936 27.9703 4.90957 27.8902 5.3295 27.7403C4.83925 27.5098 4.38953 27.19 3.99939 26.7901ZM15.6696 25.73L13.9098 23.9702L11.0694 26.7999C10.8296 27.0401 10.5694 27.2501 10.2896 27.4303L12.1295 29.2701C12.5997 29.7404 13.2296 30.0001 13.8995 30.0001C14.5695 30.0001 15.1999 29.7404 15.6696 29.2701C16.6394 28.2901 16.6394 26.71 15.6696 25.73ZM18.9998 2.99994V0.999888C18.9998 0.447628 18.5525 -0.000137329 17.9997 -0.000137329C17.447 -0.000137329 16.9997 0.447628 16.9997 0.999888V2.99994C16.9997 3.5522 17.447 3.99996 17.9997 3.99996C18.5525 3.99996 18.9998 3.5522 18.9998 2.99994ZM28 9.99963C28 9.44737 27.5527 8.9996 27 8.9996H24.9999C24.4472 8.9996 23.9999 9.44737 23.9999 9.99963C23.9999 10.5519 24.4472 10.9997 24.9999 10.9997H27C27.5527 10.9997 28 10.5519 28 9.99963ZM22.7069 6.70658L24.7069 4.70653C25.0976 4.31589 25.0976 3.68306 24.7069 3.29243C24.3163 2.90179 23.6835 2.90179 23.2928 3.29243L21.2928 5.29248C20.9022 5.68311 20.9022 6.31594 21.2928 6.70658C21.4881 6.90189 21.744 6.99955 21.9998 6.99955C22.2557 6.99955 22.5116 6.90189 22.7069 6.70658Z" fill="#9DE500"/>
</svg>
