<svg width="28" height="28" viewBox="0 0 28 28" fill="none" xmlns="http://www.w3.org/2000/svg">
<path d="M20.5598 26.3594H18.1016V24.6641H9.89844V26.3594H7.44024C6.98721 26.3594 6.61992 26.7267 6.61992 27.1797C6.61992 27.6327 6.98721 28 7.44024 28H20.5598C21.0128 28 21.3801 27.6327 21.3801 27.1797C21.3801 26.7267 21.0128 26.3594 20.5598 26.3594Z" fill="currentColor"/>
<path d="M16.4637 14.8176H23.0262V18.0988H16.4637V14.8176Z" fill="currentColor"/>
<path d="M27.1797 0H0.820312C0.367281 0 0 0.367281 0 0.820312V22.2031C0 22.6562 0.367281 23.0234 0.820312 23.0234H27.1797C27.6327 23.0234 28 22.6562 28 22.2031V0.820312C28 0.367281 27.6327 0 27.1797 0ZM18.9246 3.33594H23.841C24.294 3.33594 24.6613 3.70322 24.6613 4.15625C24.6613 4.60928 24.294 4.97656 23.841 4.97656H18.9246C18.4716 4.97656 18.1043 4.60928 18.1043 4.15625C18.1043 3.70322 18.4716 3.33594 18.9246 3.33594ZM3.33867 4.15625C3.33867 3.70322 3.70595 3.33594 4.15898 3.33594H15.6379C16.0909 3.33594 16.4582 3.70322 16.4582 4.15625V10.7188C16.4582 11.1718 16.0909 11.5391 15.6379 11.5391H4.15898C3.70595 11.5391 3.33867 11.1718 3.33867 10.7188V4.15625ZM13.1824 18.9191C13.1824 19.3722 12.8151 19.7395 12.3621 19.7395H4.15898C3.70595 19.7395 3.33867 19.3722 3.33867 18.9191V13.9973C3.33867 13.5442 3.70595 13.177 4.15898 13.177H12.3621C12.8151 13.177 13.1824 13.5442 13.1824 13.9973V18.9191ZM24.6668 18.9191C24.6668 19.3722 24.2995 19.7395 23.8465 19.7395H15.6434C15.1903 19.7395 14.823 19.3722 14.823 18.9191V13.9973C14.823 13.5442 15.1903 13.177 15.6434 13.177H23.8465C24.2995 13.177 24.6668 13.5442 24.6668 13.9973V18.9191ZM23.8465 11.5391H18.9246C18.4716 11.5391 18.1043 11.1718 18.1043 10.7188C18.1043 10.2657 18.4716 9.89844 18.9246 9.89844H23.8465C24.2995 9.89844 24.6668 10.2657 24.6668 10.7188C24.6668 11.1718 24.2995 11.5391 23.8465 11.5391ZM23.8465 8.25781H18.9246C18.4716 8.25781 18.1043 7.89053 18.1043 7.4375C18.1043 6.98447 18.4716 6.61719 18.9246 6.61719H23.8465C24.2995 6.61719 24.6668 6.98447 24.6668 7.4375C24.6668 7.89053 24.2995 8.25781 23.8465 8.25781Z" fill="currentColor"/>
<path d="M4.9793 4.97656H14.8176V9.89844H4.9793V4.97656Z" fill="currentColor"/>
<path d="M4.9793 14.8176H11.5418V18.0988H4.9793V14.8176Z" fill="currentColor"/>
</svg>
