<svg width="32" height="33" viewBox="0 0 32 33" fill="none" xmlns="http://www.w3.org/2000/svg">
<path d="M22.5598 28.8594H20.1016V27.1641H11.8984V28.8594H9.44024C8.98721 28.8594 8.61993 29.2267 8.61993 29.6797C8.61993 30.1327 8.98721 30.5 9.44024 30.5H22.5598C23.0128 30.5 23.3801 30.1327 23.3801 29.6797C23.3801 29.2267 23.0128 28.8594 22.5598 28.8594Z" fill="currentColor"/>
<path d="M18.4637 17.3176H25.0262V20.5989H18.4637V17.3176Z" fill="currentColor"/>
<path d="M29.1797 2.5H2.82031C2.36728 2.5 2 2.86728 2 3.32031V24.7031C2 25.1562 2.36728 25.5234 2.82031 25.5234H29.1797C29.6327 25.5234 30 25.1562 30 24.7031V3.32031C30 2.86728 29.6327 2.5 29.1797 2.5ZM20.9246 5.83594H25.841C26.294 5.83594 26.6613 6.20322 26.6613 6.65625C26.6613 7.10928 26.294 7.47656 25.841 7.47656H20.9246C20.4716 7.47656 20.1043 7.10928 20.1043 6.65625C20.1043 6.20322 20.4716 5.83594 20.9246 5.83594ZM5.33867 6.65625C5.33867 6.20322 5.70595 5.83594 6.15898 5.83594H17.6379C18.0909 5.83594 18.4582 6.20322 18.4582 6.65625V13.2188C18.4582 13.6718 18.0909 14.0391 17.6379 14.0391H6.15898C5.70595 14.0391 5.33867 13.6718 5.33867 13.2188V6.65625ZM15.1824 21.4191C15.1824 21.8722 14.8151 22.2395 14.3621 22.2395H6.15898C5.70595 22.2395 5.33867 21.8722 5.33867 21.4191V16.4973C5.33867 16.0442 5.70595 15.677 6.15898 15.677H14.3621C14.8151 15.677 15.1824 16.0442 15.1824 16.4973V21.4191ZM26.6668 21.4191C26.6668 21.8722 26.2995 22.2395 25.8465 22.2395H17.6434C17.1903 22.2395 16.823 21.8722 16.823 21.4191V16.4973C16.823 16.0442 17.1903 15.677 17.6434 15.677H25.8465C26.2995 15.677 26.6668 16.0442 26.6668 16.4973V21.4191ZM25.8465 14.0391H20.9246C20.4716 14.0391 20.1043 13.6718 20.1043 13.2188C20.1043 12.7657 20.4716 12.3984 20.9246 12.3984H25.8465C26.2995 12.3984 26.6668 12.7657 26.6668 13.2188C26.6668 13.6718 26.2995 14.0391 25.8465 14.0391ZM25.8465 10.7578H20.9246C20.4716 10.7578 20.1043 10.3905 20.1043 9.9375C20.1043 9.48447 20.4716 9.11719 20.9246 9.11719H25.8465C26.2995 9.11719 26.6668 9.48447 26.6668 9.9375C26.6668 10.3905 26.2995 10.7578 25.8465 10.7578Z" fill="currentColor"/>
<path d="M6.9793 7.47656H16.8176V12.3984H6.9793V7.47656Z" fill="currentColor"/>
<path d="M6.9793 17.3176H13.5418V20.5989H6.9793V17.3176Z" fill="currentColor"/>
</svg>
