<svg xmlns="http://www.w3.org/2000/svg" width="48" height="48" viewBox="0 0 48 48" fill="none">
<path d="M20.9531 24.7734V36.5859C20.9531 38.1094 19.7344 39.375 18.211 39.375H6.39846C4.87502 39.375 3.6094 38.1094 3.6094 36.5859V19.0547C3.6094 13.3313 8.31565 8.67188 14.0391 8.67188H14.9766C15.5485 8.67188 15.9844 9.10781 15.9844 9.67969V13.2422C15.9844 13.8094 15.525 14.2734 14.9531 14.2734C11.8078 14.2734 9.2344 16.8469 9.2344 19.9922V22.0312H18.211C19.7344 22.0312 20.9531 23.25 20.9531 24.7734Z" fill="currentColor"/>
<path d="M20.0156 24.7732V26.906V31.4013V35.4888V36.4873V36.5716V36.5857C20.0156 36.6279 20.0156 36.6748 20.0109 36.717C20.0109 36.7498 20.0062 36.7826 20.0062 36.8154C20.0015 36.8623 19.964 36.9701 20.0062 36.8529C20.0531 36.7216 19.9875 36.9326 19.9781 36.9795C19.964 37.0404 19.9453 37.1013 19.9265 37.1623C19.9078 37.2232 19.8844 37.2795 19.8656 37.3404C19.8422 37.3966 19.8047 37.406 19.8656 37.3451C19.9406 37.2701 19.8703 37.3263 19.8469 37.3732C19.7859 37.481 19.725 37.5888 19.6594 37.692C19.6547 37.7013 19.6125 37.767 19.6078 37.767C19.5984 37.767 19.7344 37.6263 19.6594 37.7013C19.6031 37.7576 19.5515 37.8279 19.4953 37.8841C19.4531 37.9263 19.4062 37.9732 19.364 38.0107C19.3312 38.0388 19.1765 38.1373 19.2937 38.0763C19.4156 38.0107 19.2422 38.1091 19.214 38.1279C19.1531 38.1654 19.0922 38.2029 19.0265 38.2404C19.0078 38.2498 18.8719 38.3341 18.8578 38.3248C18.8531 38.3201 19.0406 38.2545 18.9375 38.292C18.9094 38.3013 18.8812 38.3154 18.8484 38.3248C18.7312 38.367 18.5203 38.3716 18.4219 38.4326C18.4219 38.4326 18.6187 38.4138 18.5109 38.4232C18.4781 38.4232 18.4453 38.4279 18.4125 38.4326C18.3469 38.4373 18.2812 38.4373 18.2156 38.442C18.2109 38.442 18.2109 38.442 18.2062 38.442C18.1781 38.442 18.1547 38.442 18.1265 38.442C17.7984 38.442 17.4656 38.442 17.1375 38.442C15.7781 38.442 14.4187 38.442 13.0594 38.442C11.5594 38.442 10.0594 38.442 8.55936 38.442C7.84217 38.442 7.12499 38.4513 6.4078 38.442C6.35155 38.442 6.29999 38.442 6.24374 38.4373C6.21092 38.4373 6.17811 38.4326 6.1453 38.4279C6.07967 38.4232 6.06561 38.3857 6.14061 38.4279C6.2203 38.4748 6.19686 38.4373 6.13592 38.4232C6.09374 38.4138 6.05155 38.4045 6.00936 38.3951C5.93905 38.3763 5.86405 38.3576 5.79374 38.3341C5.76092 38.3248 5.56874 38.2498 5.69999 38.3013C5.83124 38.3576 5.64374 38.2732 5.61092 38.2545C5.48905 38.1935 5.37655 38.1185 5.26405 38.0435C5.12342 37.9498 5.38124 38.1513 5.25936 38.0341C5.2078 37.9826 5.15155 37.9357 5.09999 37.8841C5.0578 37.842 5.01561 37.7951 4.97342 37.7482C4.96405 37.7388 4.91249 37.6873 4.91249 37.6779C4.9078 37.692 5.02499 37.842 4.9453 37.7201C4.87499 37.617 4.80467 37.5138 4.74842 37.4013C4.7203 37.3498 4.70155 37.2748 4.66405 37.2326C4.66874 37.2373 4.72967 37.406 4.69686 37.3123C4.6828 37.2701 4.66874 37.2326 4.65467 37.1951C4.61717 37.0873 4.61249 36.8857 4.55624 36.792C4.55624 36.792 4.57499 36.9888 4.56561 36.881C4.56092 36.8482 4.56092 36.8154 4.55624 36.7826C4.55155 36.717 4.55155 36.6513 4.54686 36.5857C4.54686 36.5763 4.54686 36.567 4.54686 36.5576C4.54686 36.4873 4.54686 36.417 4.54686 36.3466C4.54686 35.5076 4.54686 34.6638 4.54686 33.8248C4.54686 32.3998 4.54686 30.9748 4.54686 29.5498C4.54686 27.9701 4.54686 26.3904 4.54686 24.8107C4.54686 23.5076 4.54686 22.2091 4.54686 20.906C4.54686 20.2966 4.54686 19.6873 4.54686 19.0779C4.54686 18.7451 4.56092 18.4123 4.59374 18.0795C4.59842 18.0138 4.6078 17.9529 4.61249 17.8873C4.61717 17.8545 4.62186 17.8216 4.62186 17.7935C4.63124 17.6857 4.6078 17.8826 4.6078 17.8826C4.63592 17.7373 4.65467 17.5873 4.67811 17.442C4.72499 17.1795 4.78592 16.9216 4.85155 16.6685C4.92186 16.406 5.00155 16.1435 5.0953 15.8857C5.13749 15.7685 5.17967 15.6513 5.22655 15.5341C5.24061 15.5013 5.31092 15.3091 5.26405 15.4451C5.21717 15.5763 5.29686 15.3654 5.31561 15.3279C5.53592 14.8357 5.79374 14.367 6.08905 13.917C6.22967 13.7013 6.37967 13.4951 6.53436 13.2888C6.5953 13.2045 6.4828 13.3591 6.4828 13.3545C6.48749 13.3357 6.52499 13.2982 6.53905 13.2841C6.57655 13.2373 6.61874 13.1904 6.65624 13.1388C6.74999 13.0263 6.84374 12.9185 6.93749 12.8107C7.28905 12.4216 7.66874 12.0607 8.07186 11.7279C8.11874 11.6904 8.16561 11.6482 8.21717 11.6107C8.35311 11.4982 8.08124 11.7091 8.22186 11.606C8.32967 11.5263 8.43749 11.4466 8.5453 11.3716C8.76561 11.217 8.99061 11.0716 9.2203 10.9357C9.44999 10.7998 9.68905 10.6732 9.92811 10.5513C10.0406 10.4951 10.1531 10.4435 10.2656 10.392C10.2984 10.3779 10.4859 10.2935 10.3547 10.3545C10.2234 10.4107 10.439 10.3216 10.4719 10.3076C10.9687 10.1107 11.4844 9.95134 12.0047 9.83415C12.2765 9.77321 12.5484 9.72634 12.8203 9.68415C12.9281 9.67009 12.7312 9.69821 12.7312 9.69821C12.764 9.69821 12.7969 9.68884 12.8297 9.68884C12.8953 9.67946 12.9562 9.67477 13.0219 9.67009C13.1719 9.65602 13.3265 9.64196 13.4765 9.63727C13.8515 9.61852 14.2219 9.62321 14.5969 9.62321C14.7234 9.62321 14.8453 9.6279 14.9719 9.62321C14.9719 9.62321 15.0375 9.6279 15.0375 9.62321C15.0187 9.64196 14.864 9.56696 14.9437 9.60915C14.9672 9.61852 15.0094 9.6279 15.0328 9.63259C15.2062 9.67009 14.9672 9.6279 14.9765 9.60915C14.9765 9.60915 15.0469 9.65134 15.0515 9.65602C15.1359 9.71227 14.9765 9.59977 14.9812 9.59977C14.9812 9.59977 15.0422 9.65602 15.0422 9.66071C15.1172 9.75915 14.9344 9.50602 15.0047 9.60915C15.0094 9.61384 15.0515 9.68415 15.0515 9.68415C15.0375 9.68884 15 9.49665 15.014 9.59977C15.0187 9.63259 15.075 9.83415 15.0422 9.68884C15.014 9.56227 15.0375 9.67009 15.0328 9.71227V9.93259V10.856V12.9935V13.2232V13.256V13.3216C15.0375 13.3029 15.0375 13.2795 15.0422 13.2607C15.0562 13.181 15.0515 13.181 15.0375 13.2607C15.0328 13.2701 15.0328 13.2795 15.0281 13.2888C15.014 13.3357 15.0187 13.331 15.0422 13.2654C15.0703 13.2045 15.075 13.1951 15.0515 13.2373C15.0422 13.256 15.0328 13.2748 15.0234 13.2935C15.0187 13.2982 14.9765 13.3732 14.9765 13.3732C14.9812 13.3732 15.0844 13.2185 15.0281 13.3029C15.0234 13.3076 14.9625 13.3685 14.9625 13.3685C14.9484 13.3545 15.1312 13.2748 15.0328 13.3123C15.0094 13.3216 14.9765 13.3451 14.9531 13.3591C14.864 13.4154 14.925 13.3404 14.9531 13.3638C14.9719 13.3545 14.9906 13.3451 15.0094 13.3404C14.9906 13.3451 14.9672 13.3498 14.9484 13.3591C14.9297 13.3638 14.9062 13.3685 14.8875 13.3732C14.9297 13.3685 14.9672 13.3591 15.0094 13.3545C14.9484 13.3123 14.6578 13.3638 14.5828 13.3685C14.4422 13.3779 14.3015 13.392 14.1656 13.4107C12.9047 13.5748 11.7703 14.0576 10.7719 14.8451C9.84374 15.5763 9.16874 16.556 8.7328 17.6482C8.38592 18.506 8.28749 19.4201 8.28749 20.3341V22.0545C8.28749 22.5607 8.71874 22.992 9.22499 22.992H13.3875C14.9719 22.992 16.5562 22.9873 18.1406 22.992C18.2437 22.992 18.4781 22.9545 18.5297 23.0107C18.5156 22.992 18.3328 22.9779 18.4687 23.006C18.5297 23.0201 18.5906 23.0295 18.6562 23.0482C18.7453 23.0716 18.8344 23.1091 18.9234 23.1326C19.05 23.1654 18.7172 23.0295 18.9 23.1232C18.9469 23.1466 18.9937 23.1701 19.0359 23.1935C19.1156 23.2357 19.1953 23.2826 19.2703 23.3341C19.2656 23.3341 19.3687 23.3951 19.3687 23.4045C19.2703 23.3248 19.2469 23.306 19.2984 23.3529C19.3219 23.3716 19.3453 23.3904 19.3687 23.4138C19.4437 23.4795 19.514 23.5545 19.5844 23.6295C19.5937 23.6435 19.664 23.7185 19.664 23.7232C19.6687 23.7138 19.5375 23.5357 19.6453 23.7045C19.7015 23.7888 19.7578 23.8732 19.8047 23.967C19.8234 24.0045 19.8422 24.042 19.8609 24.0748C19.95 24.2529 19.8656 24.0513 19.8515 24.0513C19.8797 24.0513 19.9406 24.3185 19.95 24.3466C19.9594 24.3888 19.9687 24.4263 19.9781 24.4685C19.9828 24.5013 19.9922 24.5295 19.9969 24.5623C20.0109 24.6326 20.0062 24.6045 19.9875 24.4732C20.0344 24.4779 20.0156 24.7263 20.0156 24.7732C20.0203 25.2654 20.4422 25.7341 20.9531 25.7107C21.4547 25.6873 21.8953 25.2982 21.8906 24.7732C21.8812 23.8357 21.5344 22.9498 20.9015 22.256C20.2734 21.567 19.3922 21.192 18.4734 21.1029C17.9812 21.056 17.475 21.0888 16.9828 21.0888C14.9672 21.0888 12.9469 21.0888 10.9312 21.0888C10.3687 21.0888 9.80155 21.0888 9.23905 21.0888L10.1765 22.0263C10.1765 21.4216 10.1765 20.8123 10.1765 20.2076C10.1765 20.1326 10.1765 20.0623 10.1765 19.9873C10.1765 19.8654 10.1812 19.7482 10.1859 19.6263C10.1906 19.5513 10.1953 19.4763 10.2047 19.4013C10.2094 19.3685 10.214 19.3357 10.214 19.3029C10.2281 19.1716 10.1812 19.4904 10.2047 19.3591C10.2562 19.0873 10.3078 18.8201 10.3922 18.5576C10.4344 18.4263 10.4765 18.2998 10.5281 18.1732C10.5375 18.1451 10.5515 18.117 10.5609 18.0841C10.5984 17.9857 10.5281 18.1685 10.5281 18.1638C10.514 18.1357 10.6078 17.9951 10.6219 17.967C10.7437 17.7185 10.8844 17.4748 11.039 17.2451C11.0719 17.1935 11.1094 17.1466 11.1469 17.0951C11.2453 16.9545 11.039 17.2216 11.1515 17.0904C11.2406 16.9779 11.3344 16.8701 11.4328 16.7623C11.6156 16.5654 11.8078 16.3826 12.014 16.2138C12.0375 16.1951 12.0609 16.1763 12.0844 16.1576C12.164 16.092 12.014 16.2138 12.0187 16.2091C12.0234 16.181 12.1453 16.1154 12.1687 16.1013C12.2859 16.017 12.4078 15.942 12.5297 15.867C12.6469 15.7966 12.764 15.7357 12.8812 15.6748C12.9375 15.6466 12.9937 15.6232 13.05 15.5951C13.0594 15.5904 13.125 15.5529 13.1344 15.5576C13.1156 15.5482 12.9469 15.6326 13.0828 15.581C13.3359 15.4826 13.5937 15.3982 13.8609 15.3326C13.9969 15.2998 14.1281 15.2716 14.264 15.2482C14.2922 15.2435 14.3297 15.2435 14.3578 15.2341C14.3578 15.2341 14.1609 15.2576 14.2687 15.2482C14.3531 15.2388 14.4422 15.2295 14.5265 15.2248C14.864 15.2013 15.2156 15.2295 15.5437 15.117C16.364 14.8404 16.8984 14.1045 16.9219 13.242C16.9265 13.0779 16.9219 12.9185 16.9219 12.7545C16.9219 11.9951 16.9219 11.2404 16.9219 10.481C16.9219 9.67477 16.9687 8.83102 16.289 8.2404C15.8156 7.8279 15.2719 7.73415 14.6672 7.73415C14.2922 7.73415 13.9172 7.72946 13.5469 7.74352C11.1328 7.85602 8.85936 8.73259 6.96092 10.2185C5.1703 11.6201 3.83436 13.5935 3.16405 15.7638C2.78436 16.992 2.67186 18.2576 2.67186 19.5373V22.542V27.0982V31.856V35.4701C2.67186 36.281 2.60624 37.1341 2.9203 37.9029C3.47342 39.2529 4.65467 40.1435 6.10311 40.3029C6.3703 40.331 6.64217 40.317 6.90936 40.317H10.6125H15.3515H18.1406C20.2219 40.3123 21.8812 38.6201 21.8859 36.5482C21.8906 35.6529 21.8859 34.7529 21.8859 33.8576C21.8859 32.2826 21.8859 30.7076 21.8859 29.1326C21.8859 27.8716 21.8859 26.6154 21.8859 25.3545C21.8859 25.1623 21.8859 24.9701 21.8859 24.7779C21.8859 24.2857 21.4547 23.817 20.9484 23.8404C20.4469 23.8591 20.0156 24.2482 20.0156 24.7732Z" fill="currentColor"/>
<path d="M44.3438 24.7734V36.5859C44.3438 38.1094 43.125 39.375 41.6016 39.375H29.7891C28.2657 39.375 27 38.1094 27 36.5859V19.0547C27 13.3313 31.7063 8.67188 37.4297 8.67188H38.3672C38.9391 8.67188 39.375 9.10781 39.375 9.67969V13.2422C39.375 13.8094 38.9157 14.2734 38.3438 14.2734C35.1985 14.2734 32.625 16.8469 32.625 19.9922V22.0312H41.6016C43.125 22.0312 44.3438 23.25 44.3438 24.7734Z" fill="currentColor"/>
<path d="M43.4063 24.7732V26.906V31.4013V35.4888V36.4873V36.5716V36.5857C43.4063 36.6279 43.4063 36.6748 43.4016 36.717C43.4016 36.7498 43.3969 36.7826 43.3969 36.8154C43.3922 36.8623 43.3547 36.9701 43.3969 36.8529C43.4438 36.7216 43.3781 36.9326 43.3688 36.9795C43.3547 37.0404 43.3359 37.1013 43.3172 37.1623C43.2984 37.2232 43.275 37.2795 43.2563 37.3404C43.2328 37.3966 43.1953 37.406 43.2563 37.3451C43.3313 37.2701 43.2609 37.3263 43.2375 37.3732C43.1766 37.481 43.1156 37.5888 43.05 37.692C43.0453 37.7013 43.0031 37.767 42.9984 37.767C42.9891 37.767 43.125 37.6263 43.05 37.7013C42.9938 37.7576 42.9422 37.8279 42.8859 37.8841C42.8438 37.9263 42.7969 37.9732 42.7547 38.0107C42.7219 38.0388 42.5672 38.1373 42.6844 38.0763C42.8063 38.0107 42.6328 38.1091 42.6047 38.1279C42.5438 38.1654 42.4828 38.2029 42.4172 38.2404C42.3984 38.2498 42.2625 38.3341 42.2484 38.3248C42.2438 38.3201 42.4313 38.2545 42.3281 38.292C42.3 38.3013 42.2719 38.3154 42.2391 38.3248C42.1219 38.367 41.9109 38.3716 41.8125 38.4326C41.8125 38.4326 42.0094 38.4138 41.9016 38.4232C41.8688 38.4232 41.8359 38.4279 41.8031 38.4326C41.7375 38.4373 41.6719 38.4373 41.6063 38.442C41.6016 38.442 41.6016 38.442 41.5969 38.442C41.5688 38.442 41.5453 38.442 41.5172 38.442C41.1891 38.442 40.8563 38.442 40.5281 38.442C39.1688 38.442 37.8094 38.442 36.45 38.442C34.95 38.442 33.45 38.442 31.95 38.442C31.2328 38.442 30.5156 38.4513 29.7984 38.442C29.7422 38.442 29.6906 38.442 29.6344 38.4373C29.6016 38.4373 29.5688 38.4326 29.5359 38.4279C29.4703 38.4232 29.4563 38.3857 29.5313 38.4279C29.6109 38.4748 29.5875 38.4373 29.5266 38.4232C29.4844 38.4138 29.4422 38.4045 29.4 38.3951C29.3297 38.3763 29.2547 38.3576 29.1844 38.3341C29.1516 38.3248 28.9594 38.2498 29.0906 38.3013C29.2219 38.3576 29.0344 38.2732 29.0016 38.2545C28.8797 38.1935 28.7672 38.1185 28.6547 38.0435C28.5141 37.9498 28.7719 38.1513 28.65 38.0341C28.5984 37.9826 28.5422 37.9357 28.4906 37.8841C28.4484 37.842 28.4063 37.7951 28.3641 37.7482C28.3547 37.7388 28.3031 37.6873 28.3031 37.6779C28.2984 37.692 28.4156 37.842 28.3359 37.7201C28.2656 37.617 28.1953 37.5138 28.1391 37.4013C28.1109 37.3498 28.0922 37.2748 28.0547 37.2326C28.0594 37.2373 28.1203 37.406 28.0875 37.3123C28.0734 37.2701 28.0594 37.2326 28.0453 37.1951C28.0078 37.0873 28.0031 36.8857 27.9469 36.792C27.9469 36.792 27.9656 36.9888 27.9563 36.881C27.9516 36.8482 27.9516 36.8154 27.9469 36.7826C27.9422 36.717 27.9422 36.6513 27.9375 36.5857C27.9375 36.5763 27.9375 36.567 27.9375 36.5576C27.9375 36.4873 27.9375 36.417 27.9375 36.3466C27.9375 35.5076 27.9375 34.6638 27.9375 33.8248C27.9375 32.3998 27.9375 30.9748 27.9375 29.5498C27.9375 27.9701 27.9375 26.3904 27.9375 24.8107C27.9375 23.5076 27.9375 22.2091 27.9375 20.906C27.9375 20.2966 27.9375 19.6873 27.9375 19.0779C27.9375 18.7451 27.9516 18.4123 27.9844 18.0795C27.9891 18.0138 27.9984 17.9529 28.0031 17.8873C28.0078 17.8545 28.0125 17.8216 28.0125 17.7935C28.0219 17.6857 27.9984 17.8826 27.9984 17.8826C28.0266 17.7373 28.0453 17.5873 28.0688 17.442C28.1156 17.1795 28.1766 16.9216 28.2422 16.6685C28.3125 16.406 28.3922 16.1435 28.4859 15.8857C28.5281 15.7685 28.5703 15.6513 28.6172 15.5341C28.6313 15.5013 28.7016 15.3091 28.6547 15.4451C28.6078 15.5763 28.6875 15.3654 28.7063 15.3279C28.9266 14.8357 29.1844 14.367 29.4797 13.917C29.6203 13.7013 29.7703 13.4951 29.925 13.2888C29.9859 13.2045 29.8734 13.3591 29.8734 13.3545C29.8781 13.3357 29.9156 13.2982 29.9297 13.2841C29.9672 13.2373 30.0094 13.1904 30.0469 13.1388C30.1406 13.0263 30.2344 12.9185 30.3281 12.8107C30.6797 12.4216 31.0594 12.0607 31.4625 11.7279C31.5094 11.6904 31.5563 11.6482 31.6078 11.6107C31.7438 11.4982 31.4719 11.7091 31.6125 11.606C31.7203 11.5263 31.8281 11.4466 31.9359 11.3716C32.1563 11.217 32.3813 11.0716 32.6109 10.9357C32.8406 10.7998 33.0797 10.6732 33.3188 10.5513C33.4313 10.4951 33.5438 10.4435 33.6563 10.392C33.6891 10.3779 33.8766 10.2935 33.7453 10.3545C33.6141 10.4107 33.8297 10.3216 33.8625 10.3076C34.3594 10.1107 34.875 9.95134 35.3953 9.83415C35.6672 9.77321 35.9391 9.72634 36.2109 9.68415C36.3188 9.67009 36.1219 9.69821 36.1219 9.69821C36.1547 9.69821 36.1875 9.68884 36.2203 9.68884C36.2859 9.67946 36.3469 9.67477 36.4125 9.67009C36.5625 9.65602 36.7172 9.64196 36.8672 9.63727C37.2422 9.61852 37.6125 9.62321 37.9875 9.62321C38.1141 9.62321 38.2359 9.6279 38.3625 9.62321C38.3625 9.62321 38.4281 9.6279 38.4281 9.62321C38.4094 9.64196 38.2547 9.56696 38.3344 9.60915C38.3578 9.61852 38.4 9.6279 38.4234 9.63259C38.5969 9.67009 38.3578 9.6279 38.3672 9.60915C38.3672 9.60915 38.4375 9.65134 38.4422 9.65602C38.5266 9.71227 38.3672 9.59977 38.3719 9.59977C38.3719 9.59977 38.4328 9.65602 38.4328 9.66071C38.5078 9.75915 38.325 9.50602 38.3953 9.60915C38.4 9.61384 38.4422 9.68415 38.4422 9.68415C38.4281 9.68884 38.3906 9.49665 38.4047 9.59977C38.4094 9.63259 38.4656 9.83415 38.4328 9.68884C38.4047 9.56227 38.4281 9.67009 38.4234 9.71227V9.93259V10.856V12.9935V13.2232V13.256V13.3216C38.4281 13.3029 38.4281 13.2795 38.4328 13.2607C38.4469 13.181 38.4422 13.181 38.4281 13.2607C38.4234 13.2701 38.4234 13.2795 38.4188 13.2888C38.4047 13.3357 38.4094 13.331 38.4328 13.2654C38.4609 13.2045 38.4656 13.1951 38.4422 13.2373C38.4328 13.256 38.4234 13.2748 38.4141 13.2935C38.4094 13.2982 38.3672 13.3732 38.3672 13.3732C38.3719 13.3732 38.475 13.2185 38.4188 13.3029C38.4141 13.3076 38.3531 13.3685 38.3531 13.3685C38.3391 13.3545 38.5219 13.2748 38.4234 13.3123C38.4 13.3216 38.3672 13.3451 38.3438 13.3591C38.2547 13.4154 38.3156 13.3404 38.3438 13.3638C38.3625 13.3545 38.3813 13.3451 38.4 13.3404C38.3813 13.3451 38.3578 13.3498 38.3391 13.3591C38.3203 13.3638 38.2969 13.3685 38.2781 13.3732C38.3203 13.3685 38.3578 13.3591 38.4 13.3545C38.3391 13.3123 38.0484 13.3638 37.9734 13.3685C37.8328 13.3779 37.6922 13.392 37.5563 13.4107C36.2953 13.5748 35.1609 14.0576 34.1625 14.8451C33.2344 15.5763 32.5594 16.556 32.1234 17.6482C31.7766 18.506 31.6781 19.4201 31.6781 20.3341V22.0545C31.6781 22.5607 32.1094 22.992 32.6156 22.992H36.7781C38.3625 22.992 39.9469 22.9873 41.5313 22.992C41.6344 22.992 41.8688 22.9545 41.9203 23.0107C41.9063 22.992 41.7234 22.9779 41.8594 23.006C41.9203 23.0201 41.9813 23.0295 42.0469 23.0482C42.1359 23.0716 42.225 23.1091 42.3141 23.1326C42.4406 23.1654 42.1078 23.0295 42.2906 23.1232C42.3375 23.1466 42.3844 23.1701 42.4266 23.1935C42.5063 23.2357 42.5859 23.2826 42.6609 23.3341C42.6563 23.3341 42.7594 23.3951 42.7594 23.4045C42.6609 23.3248 42.6375 23.306 42.6891 23.3529C42.7125 23.3716 42.7359 23.3904 42.7594 23.4138C42.8344 23.4795 42.9047 23.5545 42.975 23.6295C42.9844 23.6435 43.0547 23.7185 43.0547 23.7232C43.0594 23.7138 42.9281 23.5357 43.0359 23.7045C43.0922 23.7888 43.1484 23.8732 43.1953 23.967C43.2141 24.0045 43.2328 24.042 43.2516 24.0748C43.3406 24.2529 43.2563 24.0513 43.2422 24.0513C43.2703 24.0513 43.3313 24.3185 43.3406 24.3466C43.35 24.3888 43.3594 24.4263 43.3688 24.4685C43.3734 24.5013 43.3828 24.5295 43.3875 24.5623C43.4016 24.6326 43.3969 24.6045 43.3781 24.4732C43.425 24.4779 43.4063 24.7263 43.4063 24.7732C43.4109 25.2654 43.8328 25.7341 44.3438 25.7107C44.8453 25.6873 45.2859 25.2982 45.2813 24.7732C45.2719 23.8357 44.925 22.9498 44.2922 22.256C43.6641 21.567 42.7828 21.192 41.8641 21.1029C41.3719 21.056 40.8656 21.0888 40.3734 21.0888C38.3578 21.0888 36.3375 21.0888 34.3219 21.0888C33.7594 21.0888 33.1922 21.0888 32.6297 21.0888C32.9438 21.4029 33.2531 21.7123 33.5672 22.0263C33.5672 21.4216 33.5672 20.8123 33.5672 20.2076C33.5672 20.1326 33.5672 20.0623 33.5672 19.9873C33.5672 19.8654 33.5719 19.7482 33.5766 19.6263C33.5813 19.5513 33.5859 19.4763 33.5953 19.4013C33.6 19.3685 33.6047 19.3357 33.6047 19.3029C33.6188 19.1716 33.5719 19.4904 33.5953 19.3591C33.6469 19.0873 33.6984 18.8201 33.7828 18.5576C33.825 18.4263 33.8672 18.2998 33.9188 18.1732C33.9281 18.1451 33.9422 18.117 33.9516 18.0841C33.9891 17.9857 33.9188 18.1685 33.9188 18.1638C33.9047 18.1357 33.9984 17.9951 34.0125 17.967C34.1344 17.7185 34.275 17.4748 34.4297 17.2451C34.4625 17.1935 34.5 17.1466 34.5375 17.0951C34.6359 16.9545 34.4297 17.2216 34.5422 17.0904C34.6313 16.9779 34.725 16.8701 34.8234 16.7623C35.0063 16.5654 35.1984 16.3826 35.4047 16.2138C35.4281 16.1951 35.4516 16.1763 35.475 16.1576C35.5547 16.092 35.4047 16.2138 35.4094 16.2091C35.4141 16.181 35.5359 16.1154 35.5594 16.1013C35.6766 16.017 35.7984 15.942 35.9203 15.867C36.0375 15.7966 36.1547 15.7357 36.2719 15.6748C36.3281 15.6466 36.3844 15.6232 36.4406 15.5951C36.45 15.5904 36.5156 15.5529 36.525 15.5576C36.5063 15.5482 36.3375 15.6326 36.4734 15.581C36.7266 15.4826 36.9844 15.3982 37.2516 15.3326C37.3875 15.2998 37.5188 15.2716 37.6547 15.2482C37.6828 15.2435 37.7203 15.2435 37.7484 15.2341C37.7484 15.2341 37.5516 15.2576 37.6594 15.2482C37.7438 15.2388 37.8328 15.2295 37.9172 15.2248C38.2547 15.2013 38.6063 15.2295 38.9344 15.117C39.7547 14.8404 40.2891 14.1045 40.3125 13.242C40.3172 13.0779 40.3125 12.9185 40.3125 12.7545C40.3125 11.9951 40.3125 11.2404 40.3125 10.481C40.3125 9.67477 40.3594 8.83102 39.6797 8.2404C39.2063 7.8279 38.6625 7.73415 38.0578 7.73415C37.6828 7.73415 37.3078 7.72946 36.9375 7.74352C34.5234 7.85602 32.25 8.73259 30.3516 10.2185C28.5609 11.6201 27.225 13.5935 26.5547 15.7638C26.175 16.9873 26.0625 18.2576 26.0625 19.5326V22.5373V27.0935V31.8513V35.4654C26.0625 36.2763 25.9969 37.1295 26.3109 37.8982C26.8641 39.2482 28.0453 40.1388 29.4938 40.2982C29.7609 40.3263 30.0328 40.3123 30.3 40.3123H34.0031H38.7422H41.5313C43.6125 40.3076 45.2719 38.6154 45.2766 36.5435C45.2813 35.6482 45.2766 34.7482 45.2766 33.8529C45.2766 32.2779 45.2766 30.7029 45.2766 29.1279C45.2766 27.867 45.2766 26.6107 45.2766 25.3498C45.2766 25.1576 45.2766 24.9654 45.2766 24.7732C45.2766 24.281 44.8453 23.8123 44.3391 23.8357C43.8375 23.8591 43.4063 24.2482 43.4063 24.7732Z" fill="currentColor"/>
</svg>
