<svg width="33" height="32" viewBox="0 0 33 32" fill="none" xmlns="http://www.w3.org/2000/svg">
<g clip-path="url(#clip0_9_85)">
<path d="M16.496 31.9684C16.1253 31.9684 15.7589 31.8736 15.4262 31.6882C14.9125 31.4015 14.541 30.9316 14.38 30.3654L13.1866 26.1895C12.249 22.8635 9.60415 20.2187 6.28323 19.2825L2.1001 18.0869C1.3622 17.8771 0.794581 17.3102 0.584778 16.5694C0.252829 15.4004 0.93397 14.1797 2.10298 13.8485L6.27892 12.655C9.60487 11.7174 12.2497 9.07258 13.1859 5.75165L14.403 1.49164L14.4332 1.41764C14.6588 0.869419 15.1021 0.425384 15.6511 0.199773C16.7906 -0.267972 18.0983 0.27809 18.5668 1.41764L18.5969 1.49164L19.8127 5.74734C20.7503 9.07329 23.3951 11.7181 26.716 12.6543L30.8992 13.8499C31.6385 14.0604 32.2047 14.628 32.4145 15.3674C32.5754 15.9336 32.5057 16.5285 32.2191 17.0422C31.9324 17.556 31.4625 17.9281 30.8963 18.0884L26.7204 19.2818C23.3944 20.2194 20.7496 22.8643 19.8134 26.1852L18.6178 30.3683C18.408 31.1062 17.8404 31.6738 17.1003 31.8836C16.9006 31.9404 16.6972 31.9684 16.4953 31.9684H16.496ZM15.8551 29.5787C15.8551 29.5787 15.8551 29.5801 15.8551 29.5808V29.5787ZM17.1434 29.5765V29.5787C17.1434 29.5787 17.1434 29.5772 17.1434 29.5765ZM5.1444 15.9681L7.06784 16.5177C9.17665 17.1119 11.1145 18.2479 12.6671 19.8006C14.2198 21.3532 15.3558 23.291 15.9514 25.4049L16.4996 27.3233L17.0493 25.3999C17.6435 23.291 18.7794 21.3532 20.3321 19.8006C21.8848 18.2479 23.8226 17.1119 25.9365 16.5163L27.8549 15.9681L25.9314 15.4184C23.8226 14.8242 21.8848 13.6882 20.3321 12.1356C18.7794 10.5829 17.6435 8.64507 17.0479 6.53123L16.4996 4.61282L15.95 6.53626C15.3558 8.64507 14.2198 10.5829 12.6671 12.1356C11.1145 13.6882 9.17665 14.8242 7.06281 15.4198L5.1444 15.9681ZM2.89117 16.6118H2.88902C2.88902 16.6118 2.89046 16.6118 2.89117 16.6118ZM30.1103 15.3236C30.1103 15.3236 30.1088 15.3236 30.1081 15.3236H30.1103ZM2.88686 15.3228H2.88902C2.88902 15.3228 2.88758 15.3228 2.88686 15.3228Z" fill="currentColor"/>
</g>
<defs>
<clipPath id="clip0_9_85">
<rect width="32" height="31.9368" fill="white" transform="translate(0.5 0.0316162)"/>
</clipPath>
</defs>
</svg>
