<svg width="32" height="33" viewBox="0 0 32 33" fill="none" xmlns="http://www.w3.org/2000/svg">
<path d="M27.985 4.02002H4.015C3.48089 4.02099 2.96893 4.2336 2.59125 4.61127C2.21358 4.98895 2.00097 5.50091 2 6.03502V19.205H30V6.03502C29.999 5.50091 29.7864 4.98895 29.4087 4.61127C29.0311 4.2336 28.5191 4.02099 27.985 4.02002ZM9.925 13.205C9.87795 15.8393 5.80242 15.8495 5.755 13.21V10.02C5.75762 9.88914 5.81146 9.76451 5.90494 9.67288C5.99843 9.58125 6.12411 9.52993 6.25502 9.52994C6.38592 9.52994 6.5116 9.58127 6.60508 9.67291C6.69856 9.76454 6.75239 9.88918 6.755 10.0201V13.21C6.75091 14.5202 8.93022 14.5162 8.925 13.205V10.005C8.925 9.87243 8.97768 9.74525 9.07145 9.65148C9.16521 9.55771 9.29239 9.50503 9.425 9.50503C9.55761 9.50503 9.68478 9.55771 9.77855 9.65148C9.87232 9.74525 9.925 9.87243 9.925 10.005V13.205ZM14.84 10.295L13.29 12.435L14.625 14.405C14.6959 14.5151 14.7209 14.6486 14.6945 14.7769C14.6682 14.9052 14.5926 15.018 14.4841 15.0913C14.3755 15.1645 14.2426 15.1923 14.1138 15.1687C13.985 15.1451 13.8705 15.072 13.795 14.965L12.665 13.2951L11.445 14.9801C11.3664 15.087 11.2488 15.1586 11.1176 15.1792C10.9865 15.1998 10.8526 15.1678 10.745 15.0901C10.6915 15.0516 10.6462 15.0028 10.6116 14.9467C10.5771 14.8906 10.554 14.8281 10.5438 14.763C10.5336 14.6979 10.5364 14.6314 10.552 14.5674C10.5677 14.5034 10.5959 14.4431 10.635 14.3901L12.07 12.4151L10.625 10.2851C10.551 10.175 10.5235 10.0401 10.5486 9.90981C10.5738 9.77955 10.6494 9.66453 10.7591 9.58988C10.8687 9.51522 11.0035 9.48701 11.1339 9.51141C11.2643 9.5358 11.3797 9.61081 11.455 9.72006L12.695 11.5501L14.03 9.71006C14.1088 9.6059 14.2252 9.53674 14.3544 9.51737C14.4836 9.49801 14.6152 9.52998 14.7211 9.60645C14.8269 9.68292 14.8987 9.7978 14.9209 9.9265C14.9431 10.0552 14.9141 10.1875 14.84 10.295ZM19.56 8.76004L15.9 16.425C15.8415 16.5426 15.7392 16.6324 15.6151 16.6753C15.491 16.7182 15.355 16.7106 15.2364 16.6543C15.1178 16.598 15.0261 16.4973 14.9809 16.374C14.9358 16.2507 14.9408 16.1146 14.995 15.995L18.655 8.33004C18.7141 8.21354 18.8164 8.12474 18.9401 8.08255C19.0637 8.04037 19.1989 8.04814 19.317 8.1042C19.435 8.16027 19.5264 8.26021 19.5718 8.38271C19.6172 8.50522 19.613 8.64062 19.56 8.76004ZM24.33 13.205C24.283 15.8393 20.2074 15.8495 20.16 13.21V10.02C20.1626 9.88914 20.2165 9.76451 20.3099 9.67288C20.4034 9.58125 20.5291 9.52993 20.66 9.52994C20.7909 9.52994 20.9166 9.58127 21.0101 9.67291C21.1036 9.76454 21.1574 9.88918 21.16 10.0201V13.21C21.1597 14.5204 23.3348 14.5157 23.33 13.205V10.005C23.33 9.87243 23.3827 9.74525 23.4764 9.65148C23.5702 9.55771 23.6974 9.50503 23.83 9.50503C23.9626 9.50503 24.0898 9.55771 24.1835 9.65148C24.2773 9.74525 24.33 9.87243 24.33 10.005L24.33 13.205ZM26.245 14.685C26.243 14.8164 26.1895 14.9417 26.096 15.0338C26.0024 15.126 25.8763 15.1777 25.745 15.1777C25.6136 15.1777 25.4876 15.126 25.394 15.0338C25.3005 14.9416 25.2469 14.8163 25.245 14.685V10.005C25.2474 9.87402 25.3012 9.74919 25.3947 9.6574C25.4882 9.56561 25.614 9.51418 25.745 9.51418C25.876 9.51419 26.0018 9.56562 26.0953 9.65742C26.1889 9.74922 26.2426 9.87405 26.245 10.0051V14.685Z" fill="currentColor"/>
<path d="M3 20.2051H2V21.5651C2.00097 22.0992 2.21357 22.6112 2.59125 22.9888C2.96893 23.3665 3.48089 23.5791 4.015 23.5801H13.81C13.865 24.7701 11.875 26.8601 10.295 28.0851C10.212 28.1485 10.151 28.2364 10.1206 28.3364C10.0902 28.4364 10.092 28.5433 10.1257 28.6422C10.1594 28.7411 10.2233 28.827 10.3084 28.8876C10.3935 28.9482 10.4955 28.9805 10.6 28.9801H21.4C21.505 28.9774 21.6065 28.9421 21.6905 28.879C21.7745 28.8159 21.8368 28.7283 21.8687 28.6282C21.9006 28.5282 21.9005 28.4206 21.8685 28.3206C21.8364 28.2206 21.7741 28.133 21.69 28.0701C21.655 28.0451 18.565 25.8201 18.315 23.5801H27.985C28.5191 23.5791 29.0311 23.3665 29.4088 22.9888C29.7864 22.6112 29.999 22.0992 30 21.5651V20.2051H3ZM14.74 20.7501H17.11C17.2413 20.752 17.3666 20.8056 17.4588 20.8991C17.551 20.9927 17.6026 21.1187 17.6026 21.2501C17.6026 21.3814 17.551 21.5075 17.4588 21.601C17.3666 21.6946 17.2413 21.7481 17.11 21.7501H14.74C14.6087 21.748 14.4835 21.6945 14.3914 21.6009C14.2993 21.5074 14.2477 21.3814 14.2477 21.2501C14.2477 21.1188 14.2993 20.9928 14.3914 20.8992C14.4835 20.8057 14.6087 20.7521 14.74 20.7501Z" fill="currentColor"/>
</svg>
