<svg width="32" height="33" viewBox="0 0 32 33" fill="none" xmlns="http://www.w3.org/2000/svg">
<path d="M30 8.9375V4.83594C30 3.47898 28.896 2.375 27.5391 2.375H4.46094C3.10398 2.375 2 3.47898 2 4.83594V8.9375H30ZM20.9219 5.65625H25.8438C26.2968 5.65625 26.6641 6.02353 26.6641 6.47656C26.6641 6.92959 26.2968 7.29688 25.8438 7.29688H20.9219C20.4688 7.29688 20.1016 6.92959 20.1016 6.47656C20.1016 6.02353 20.4688 5.65625 20.9219 5.65625ZM12.7188 5.65625C13.1718 5.65625 13.5391 6.02353 13.5391 6.47656C13.5391 6.92959 13.1718 7.29688 12.7188 7.29688C12.2657 7.29688 11.8984 6.92959 11.8984 6.47656C11.8984 6.02353 12.2657 5.65625 12.7188 5.65625ZM9.4375 5.65625C9.89053 5.65625 10.2578 6.02353 10.2578 6.47656C10.2578 6.92959 9.89053 7.29688 9.4375 7.29688C8.98447 7.29688 8.61719 6.92959 8.61719 6.47656C8.61719 6.02353 8.98447 5.65625 9.4375 5.65625ZM6.15625 5.65625C6.60928 5.65625 6.97656 6.02353 6.97656 6.47656C6.97656 6.92959 6.60928 7.29688 6.15625 7.29688C5.70322 7.29688 5.33594 6.92959 5.33594 6.47656C5.33594 6.02353 5.70322 5.65625 6.15625 5.65625Z" fill="currentColor"/>
<path d="M2 10.9375V28.1641C2 29.521 3.10398 30.625 4.46094 30.625H27.5391C28.896 30.625 30 29.521 30 28.1641V10.9375H2ZM11.5905 22.6016C11.9444 22.8846 12.0017 23.4008 11.7187 23.7546C11.4357 24.1083 10.9194 24.1658 10.5657 23.8827L6.46414 20.6014C6.05404 20.2735 6.05377 19.6486 6.46414 19.3203L10.5657 16.0391C10.9193 15.7561 11.4356 15.8134 11.7187 16.1672C12.0017 16.5209 11.9444 17.0372 11.5905 17.3201L8.28972 19.9609L11.5905 22.6016ZM19.2149 14.5419L14.293 26.0263C14.1146 26.4426 13.6325 26.6357 13.2159 26.4571C12.7995 26.2787 12.6066 25.7964 12.7851 25.38L17.707 13.8956C17.8855 13.4792 18.3677 13.2863 18.7841 13.4648C19.2005 13.6432 19.3934 14.1255 19.2149 14.5419ZM25.5359 20.6015L21.4343 23.8827C21.0811 24.1654 20.5648 24.1089 20.2813 23.7547C19.9983 23.4009 20.0556 22.8846 20.4095 22.6017L23.7103 19.9609L20.4095 17.3202C20.0556 17.0372 19.9983 16.521 20.2813 16.1673C20.5643 15.8135 21.0805 15.7561 21.4343 16.0392L25.5359 19.3204C25.946 19.6484 25.9462 20.2733 25.5359 20.6015Z" fill="currentColor"/>
</svg>
