<svg xmlns="http://www.w3.org/2000/svg" width="43" height="43" viewBox="0 0 43 43" fill="none">
<g clip-path="url(#clip0_226_3846)">
<path d="M38.3443 13.2582C36.2991 5.51371 29.2124 0 21.0954 0C13.0284 0 5.95016 5.51163 3.86825 13.2539C1.83307 13.6314 0.286621 15.4202 0.286621 17.5634V22.5021C0.286621 24.4242 1.53076 26.0613 3.25589 26.6506V28.7162C3.25589 34.9174 8.3016 39.9626 14.5036 39.9626H15.8876C16.4404 41.2701 17.7358 42.1898 19.2421 42.1898H22.9461C24.9534 42.1898 26.5865 40.5569 26.5865 38.5498C26.5865 36.5421 24.9534 34.909 22.9461 34.909H19.2421C17.7362 34.909 16.441 35.8283 15.888 37.1354H14.5036C9.8605 37.1354 6.08304 33.3585 6.08304 28.7162V25.4708C6.08304 24.6901 5.45014 24.0572 4.66946 24.0572C3.81171 24.0572 3.11378 23.3595 3.11378 22.5019V17.5634C3.11378 16.7057 3.81171 16.0077 4.66287 16.0077L4.99628 16.0092C4.99855 16.0092 5.00081 16.0092 5.00307 16.0092C5.67405 16.0092 6.25324 15.5371 6.38781 14.8791C7.81703 7.89568 14.0025 2.82715 21.0954 2.82715C28.2342 2.82715 34.4254 7.8921 35.817 14.8705C35.9487 15.5314 36.529 16.0075 37.2032 16.0075H37.5204C38.3782 16.0075 39.0761 16.7055 39.0761 17.5632V22.5019C39.0761 23.3595 38.3782 24.0572 37.5204 24.0572C36.7398 24.0572 36.1069 24.6901 36.1069 25.4708C36.1069 26.2514 36.7398 26.8844 37.5204 26.8844C39.9371 26.8844 41.9033 24.9184 41.9033 22.5019V17.5634C41.9031 15.4282 40.3683 13.6448 38.3443 13.2582ZM19.2423 37.7361H22.9463C23.3946 37.7361 23.7595 38.101 23.7595 38.5498C23.7595 38.998 23.3946 39.3627 22.9463 39.3627H19.2423C18.7941 39.3627 18.4294 38.998 18.4294 38.5498C18.4292 38.101 18.7939 37.7361 19.2423 37.7361Z" fill="currentColor"/>
<path d="M21.0945 6.79291C13.7943 6.79291 7.85498 12.7316 7.85498 20.0312C7.85498 27.3318 13.7943 33.2715 21.0945 33.2715C28.3948 33.2715 34.3339 27.3318 34.3339 20.0312C34.3339 12.7316 28.3948 6.79291 21.0945 6.79291ZM21.0945 30.4443C15.3532 30.4443 10.6821 25.7729 10.6821 20.0312C10.6821 14.2905 15.3532 9.62006 21.0945 9.62006C26.8359 9.62006 31.5068 14.2905 31.5068 20.0312C31.5068 25.7731 26.8359 30.4443 21.0945 30.4443Z" fill="currentColor"/>
</g>
<defs>
<clipPath id="clip0_226_3846">
<rect width="42.19" height="42.19" fill="white"/>
</clipPath>
</defs>
</svg>
